<!DOCTYPE svg PUBLIC "-//W3C//DTD SVG 20010904//EN" "http://www.w3.org/TR/2001/REC-SVG-20010904/DTD/svg10.dtd">
<svg version="1.0" xmlns="http://www.w3.org/2000/svg" width="243px" height="261px" viewBox="0 0 2430 2610" preserveAspectRatio="xMidYMid meet">
<g id="layer101" fill="#0d0c0c" stroke="none">
<path d="M870 2542 c0 -5 26 -37 57 -72 l57 -62 -35 7 c-47 9 -122 44 -132 61 -4 8 -12 14 -17 14 -22 0 -7 -27 43 -78 l52 -53 -60 5 c-33 3 -75 8 -94 12 -47 9 -34 -8 35 -45 73 -39 133 -51 227 -44 76 6 78 5 133 -31 56 -37 67 -64 24 -58 -20 3 -22 0 -16 -21 5 -23 3 -25 -47 -31 -68 -9 -151 -56 -168 -96 -8 -16 -18 -30 -24 -30 -5 0 -42 -10 -82 -21 -60 -18 -82 -31 -142 -86 -38 -35 -73 -72 -76 -83 -4 -11 -29 -43 -56 -71 -27 -28 -49 -58 -49 -67 0 -10 -18 -39 -40 -65 -47 -57 -54 -91 -47 -206 9 -148 72 -265 250 -465 18 -21 24 -86 7 -86 -21 0 -76 29 -142 73 -72 48 -146 71 -200 60 -50 -9 -102 -38 -131 -73 -14 -16 -29 -30 -33 -30 -4 0 -4 20 -1 45 l7 44 -28 -10 c-57 -22 -94 -80 -107 -170 -10 -68 30 -149 89 -181 36 -19 130 -37 199 -38 61 0 82 -9 57 -25 -15 -10 -12 -51 11 -129 28 -95 48 -127 138 -219 99 -101 195 -150 326 -167 50 -6 106 -16 126 -21 72 -18 133 -11 175 19 25 19 58 31 92 36 101 13 123 35 144 139 10 52 10 63 6 205 -3 67 0 83 22 122 18 31 33 46 50 48 38 6 120 63 126 88 8 31 -12 63 -50 79 -18 8 -38 21 -46 29 -7 10 -28 16 -50 16 -50 0 -93 -46 -88 -96 2 -29 -3 -37 -39 -63 -43 -31 -65 -64 -77 -115 l-7 -29 -29 34 c-16 19 -32 43 -36 54 -8 26 -64 85 -81 85 -7 0 -13 6 -13 13 0 7 -25 62 -56 121 -30 59 -59 118 -64 131 l-9 23 59 -24 c73 -29 189 -48 255 -41 148 16 324 106 486 249 90 81 99 86 99 63 0 -34 26 -94 52 -122 26 -28 68 -30 99 -4 21 17 22 22 11 45 -18 41 -14 52 11 28 49 -46 126 -55 187 -21 36 20 60 54 60 83 0 21 -27 39 -94 63 -60 21 -60 21 -23 22 90 2 166 74 201 190 12 43 13 59 3 89 -14 43 -55 64 -87 44 -18 -11 -19 -10 -9 16 12 31 4 104 -17 143 -18 35 -57 66 -95 74 -23 5 -39 1 -71 -20 -36 -24 -40 -30 -36 -64 l3 -37 -37 39 c-29 31 -41 37 -60 32 -34 -11 -48 -25 -48 -49 0 -14 -7 -7 -22 24 -13 25 -46 69 -75 98 -29 29 -53 56 -53 60 0 4 9 13 20 20 25 16 25 29 0 37 -19 6 -19 8 6 62 29 67 25 77 -55 138 -28 22 -51 42 -51 46 0 3 20 9 45 12 49 7 125 42 125 57 0 7 -16 7 -42 3 -90 -16 -179 -8 -238 22 -62 31 -230 172 -230 192 0 7 -7 13 -15 13 -21 0 4 -77 41 -126 l29 -39 -27 18 c-15 9 -36 17 -47 17 -10 0 -33 16 -50 35 -32 37 -41 42 -41 24 0 -13 65 -96 90 -116 27 -22 -19 -15 -57 8 -36 23 -54 19 -33 -6 30 -36 -58 0 -155 63 -38 26 -86 54 -105 63 -19 9 -44 26 -54 38 -20 22 -36 28 -36 13z m429 -256 c20 -24 100 -46 164 -46 55 0 66 -4 129 -47 59 -41 86 -73 60 -73 -5 0 -14 -11 -20 -25 -10 -22 -18 -25 -64 -25 -29 0 -82 -7 -118 -16 l-65 -15 -27 32 c-20 24 -25 37 -18 49 5 10 6 20 2 24 -3 4 -5 22 -3 41 2 24 -3 36 -16 43 -10 6 -35 24 -57 41 l-39 31 30 0 c17 0 36 -6 42 -14z"/>
<path d="M155 410 c-4 -6 4 -19 17 -30 19 -16 20 -19 6 -20 -34 0 -18 -20 17 -20 42 0 44 11 9 39 l-27 21 27 0 c14 0 26 5 26 10 0 13 -67 13 -75 0z"/>
<path d="M250 303 c0 -5 17 -19 37 -33 33 -23 34 -25 14 -30 -39 -9 -28 -25 14 -22 57 5 62 16 18 43 l-38 24 33 3 c53 5 36 22 -23 22 -30 0 -55 -3 -55 -7z"/>
<path d="M135 155 c-5 -2 -22 -6 -37 -9 -16 -4 -28 -10 -28 -15 0 -5 25 -26 56 -47 l55 -38 -53 -18 c-29 -10 -71 -18 -93 -19 -35 -2 -36 -3 -10 -7 35 -5 194 18 201 29 2 4 -6 13 -18 20 -13 7 -43 27 -67 46 l-44 33 29 0 c47 0 104 12 104 21 0 8 -73 11 -95 4z"/>
</g>
<g id="layer102" fill="#4f4336" stroke="none">
<path d="M870 2542 c0 -5 25 -35 56 -68 31 -32 50 -50 43 -39 -7 11 3 5 24 -14 20 -19 35 -36 33 -38 -2 -2 -19 0 -37 6 -27 7 -29 9 -11 10 46 2 13 17 -36 16 -28 0 -48 3 -46 7 3 4 -13 15 -35 24 -22 8 -42 22 -45 30 -3 8 -10 14 -16 14 -22 0 -8 -27 42 -77 44 -44 49 -53 31 -53 -12 0 -29 -3 -39 -7 -10 -3 -15 -2 -12 3 4 5 -6 10 -20 11 -15 1 -42 5 -61 9 -47 9 -34 -8 36 -45 38 -21 64 -29 82 -25 15 3 21 2 15 -3 -7 -4 37 -9 98 -10 109 -2 112 -3 165 -38 54 -36 66 -63 25 -57 -16 2 -22 -2 -22 -15 0 -15 2 -16 10 -3 5 8 12 11 16 7 9 -9 34 11 34 28 0 22 -102 78 -155 85 l-50 7 45 1 c37 1 57 -6 108 -38 65 -43 69 -49 50 -79 -9 -15 -9 -23 2 -35 12 -15 15 -15 30 -1 21 19 30 19 30 1 0 -24 20 -29 41 -10 34 31 24 56 -46 109 -36 26 -62 51 -59 54 6 6 9 7 42 10 9 2 -4 9 -30 17 -47 14 -70 31 -25 19 12 -3 -4 7 -37 24 -32 17 -79 46 -105 64 -25 18 -60 39 -78 46 -17 7 -41 23 -54 37 -23 24 -39 31 -39 16z m90 -62 c5 0 7 -7 3 -16 -5 -12 -9 -11 -26 8 -57 64 -61 72 -24 40 21 -18 42 -32 47 -32z m68 -37 c48 -35 62 -48 37 -35 -29 15 -90 62 -81 62 4 0 24 -12 44 -27z m-168 -18 c0 -20 55 -55 95 -62 48 -8 55 -23 10 -23 -27 0 -45 9 -76 38 -47 43 -68 75 -44 66 8 -4 15 -12 15 -19z m-62 -82 c57 -37 47 -39 -19 -3 -30 16 -47 30 -39 30 9 0 35 -12 58 -27z"/>
<path d="M1307 2544 c7 -3 10 -11 7 -18 -8 -20 23 -87 38 -84 8 2 12 -4 10 -15 -2 -9 1 -16 6 -15 4 2 30 -17 58 -41 27 -24 39 -39 27 -32 -12 6 -25 16 -28 21 -3 6 -15 10 -25 10 -14 0 -18 5 -13 18 6 15 5 16 -12 2 -15 -12 -17 -12 -10 -1 6 11 4 13 -8 8 -9 -3 -19 -1 -23 5 -5 7 -2 8 6 3 9 -5 11 -4 6 3 -4 7 -18 12 -31 12 -14 0 -35 14 -54 35 -32 37 -41 42 -41 24 0 -15 73 -108 84 -109 6 0 -3 13 -19 30 -16 16 -26 32 -23 36 3 3 18 -11 34 -31 15 -20 47 -47 71 -61 23 -14 43 -28 43 -31 0 -14 -82 12 -133 44 -55 33 -77 38 -62 14 3 -6 10 -9 15 -6 11 7 50 -16 50 -28 0 -13 41 -46 77 -63 19 -8 63 -14 104 -14 63 0 75 -3 108 -28 20 -16 53 -39 74 -51 38 -23 38 -24 32 -71 -6 -45 5 -74 20 -50 3 5 13 10 21 10 10 0 13 -7 8 -25 -11 -43 12 -27 32 22 11 27 20 51 22 55 2 3 -19 28 -45 54 l-48 47 47 -37 c52 -42 62 -59 48 -86 -6 -10 -10 -22 -10 -27 1 -4 8 4 16 20 10 19 12 32 5 45 -14 27 -98 93 -113 90 -8 -2 -12 4 -10 15 2 9 -2 17 -8 17 -5 0 -10 -5 -10 -11 0 -5 -5 -7 -11 -4 -18 12 -2 17 58 19 58 3 143 36 143 56 0 7 -16 7 -42 3 -90 -16 -179 -8 -238 22 -62 31 -230 172 -230 192 0 7 -8 13 -17 12 -10 0 -13 -3 -6 -5z m118 -115 c39 -33 95 -74 125 -89 30 -16 51 -29 47 -30 -22 -1 -110 55 -170 109 -64 57 -97 77 -81 49 5 -9 4 -10 -3 -3 -6 6 -14 21 -18 33 -7 23 -6 23 12 8 10 -9 50 -44 88 -77z m383 -124 c-15 -9 -34 -12 -45 -8 -14 6 -11 9 17 14 54 10 57 9 28 -6z"/>
<path d="M1313 2354 c0 -7 9 -16 19 -20 29 -9 32 1 5 19 -20 13 -24 13 -24 1z"/>
<path d="M1220 2302 c0 -4 25 -27 56 -51 49 -38 55 -47 52 -73 -3 -16 -1 -31 4 -34 4 -3 4 -14 -2 -24 -8 -15 -4 -26 17 -52 15 -18 28 -35 29 -36 2 -2 34 3 73 12 38 9 94 16 124 16 48 0 55 3 65 25 6 14 16 25 22 25 5 0 10 9 10 20 0 12 -21 33 -59 60 -33 22 -63 44 -66 50 -3 6 -40 9 -83 8 l-77 -2 70 -3 c64 -4 75 -8 137 -50 59 -41 86 -73 60 -73 -5 0 -14 -11 -20 -25 -10 -22 -18 -25 -64 -25 -29 0 -82 -7 -118 -16 l-65 -15 -27 32 c-20 24 -25 37 -18 49 5 10 6 20 2 24 -3 4 -5 21 -4 39 3 29 -3 36 -52 72 -51 37 -54 40 -31 43 14 2 36 -6 51 -17 15 -12 31 -21 37 -21 6 0 -4 11 -23 25 -32 23 -100 35 -100 17z"/>
<path d="M1170 2146 c0 -9 -19 -16 -52 -20 -69 -9 -143 -42 -163 -72 -8 -13 -15 -25 -15 -26 0 -2 21 -2 46 1 25 2 50 -1 56 -7 6 -6 -15 -11 -59 -15 -37 -2 -104 -17 -149 -31 -72 -23 -89 -34 -150 -93 l-69 -67 40 -6 40 -6 -35 -8 c-19 -4 -43 -10 -53 -13 -31 -8 17 66 81 125 56 51 120 83 196 97 25 5 40 15 46 29 18 47 77 84 165 103 l60 13 -55 -6 c-70 -7 -149 -50 -170 -92 -8 -17 -19 -32 -25 -32 -5 0 -42 -10 -82 -21 -60 -18 -82 -31 -142 -86 -38 -35 -73 -72 -76 -83 -4 -11 -29 -43 -56 -71 -27 -28 -49 -59 -49 -69 0 -10 -5 -22 -11 -25 -5 -4 -8 -12 -6 -18 2 -7 -4 -23 -13 -37 -10 -14 -25 -45 -33 -70 -10 -28 -16 -37 -17 -23 0 31 18 74 43 103 l22 25 -27 -24 c-41 -36 -51 -80 -45 -190 4 -72 11 -111 30 -156 14 -33 31 -59 37 -57 6 1 9 -2 5 -8 -8 -13 55 -117 91 -150 15 -14 23 -18 19 -10 -8 13 -7 13 9 1 9 -8 13 -17 7 -20 -5 -3 8 -26 30 -51 28 -32 39 -53 39 -77 0 -18 -5 -33 -10 -33 -21 0 -76 29 -142 73 -72 48 -146 71 -200 60 -50 -9 -102 -38 -131 -73 -14 -16 -29 -30 -33 -30 -4 0 -4 20 -1 45 l7 44 -28 -10 c-57 -22 -94 -80 -107 -170 -10 -68 30 -149 89 -181 36 -19 130 -37 199 -38 61 0 82 -9 57 -25 -12 -7 -12 -62 0 -90 5 -13 6 -1 3 31 -3 30 -1 54 5 57 6 4 10 -12 10 -40 1 -25 11 -74 22 -109 17 -50 32 -73 68 -104 46 -41 46 -41 120 -39 63 2 86 8 152 39 101 49 153 103 181 188 41 122 8 249 -85 328 -35 30 -45 34 -71 27 -45 -12 -137 -8 -163 6 -13 7 -21 15 -19 18 3 2 14 0 24 -5 31 -17 96 -19 137 -5 21 7 42 13 46 13 5 0 33 -22 63 -50 37 -33 63 -69 82 -111 24 -55 27 -71 23 -135 -4 -63 -3 -72 9 -62 20 16 73 123 73 146 0 11 -26 73 -58 138 -90 183 -112 244 -112 311 0 75 31 133 78 147 24 7 36 6 45 -3 9 -10 9 -12 -3 -11 -44 6 -82 -19 -93 -61 -4 -16 -2 -19 16 -14 21 6 21 5 -2 -13 -27 -22 -31 -67 -11 -127 9 -28 21 -36 88 -62 42 -17 90 -33 105 -37 46 -11 179 -8 232 4 73 18 220 92 297 150 76 58 211 186 226 215 16 30 22 14 12 -30 -19 -81 19 -177 72 -183 40 -5 51 24 27 72 -38 78 -16 94 43 32 65 -67 133 -74 199 -19 18 15 30 21 27 13 -9 -27 -69 -60 -110 -60 -44 0 -97 19 -117 43 -7 10 -20 17 -27 17 -11 0 -11 -8 3 -41 16 -40 15 -43 -2 -55 -42 -31 -89 -10 -116 49 -10 23 -19 60 -19 81 l0 39 -52 -49 c-142 -132 -279 -226 -379 -259 -28 -10 -48 -19 -46 -22 9 -9 125 44 201 91 41 26 118 85 170 132 88 78 96 83 96 59 0 -34 26 -94 52 -122 26 -28 68 -30 99 -4 21 17 22 22 11 45 -18 41 -14 52 11 28 49 -46 126 -55 187 -21 36 20 60 54 60 83 0 21 -27 39 -94 63 -60 21 -60 21 -23 22 44 1 102 29 133 63 24 26 64 97 64 113 0 5 -12 -12 -26 -40 -14 -27 -33 -58 -42 -69 -28 -30 -88 -56 -132 -56 -58 0 -47 -19 26 -44 73 -26 84 -33 84 -53 0 -14 -3 -14 -18 3 -10 11 -44 28 -76 39 -31 11 -70 31 -87 45 -30 26 -67 100 -50 100 5 0 13 -9 16 -21 4 -11 21 -29 38 -40 85 -52 199 10 242 130 21 59 19 104 -4 125 -23 21 -51 10 -77 -29 -24 -36 -73 -63 -123 -67 -58 -4 -66 17 -9 26 49 8 108 64 125 120 25 82 -31 186 -99 186 -49 0 -67 -25 -72 -95 -4 -60 -29 -107 -59 -113 -15 -3 -15 -1 -2 25 19 36 19 57 0 93 -17 34 -58 49 -80 30 -10 -8 -15 -9 -15 -2 0 6 8 16 18 21 9 6 12 11 6 11 -16 0 -34 -22 -34 -45 0 -13 -8 -4 -22 25 -13 25 -46 69 -75 98 -29 29 -53 56 -53 60 0 4 9 13 20 20 25 16 25 29 0 37 -16 5 -18 10 -10 25 16 29 11 38 -5 10 -19 -34 -19 -37 7 -44 18 -4 20 -8 10 -18 -9 -9 -15 -10 -20 -2 -4 7 -16 13 -27 16 -14 2 -19 10 -17 27 3 19 0 22 -16 17 -15 -5 -22 -1 -27 14 -6 20 -25 28 -25 10 0 -5 -17 -10 -37 -10 -110 0 -257 -49 -338 -112 l-40 -31 30 32 c17 18 46 42 65 53 19 12 37 23 39 25 2 2 -10 21 -28 43 -18 22 -29 45 -25 52 5 7 -1 9 -18 5 -18 -5 -28 -2 -32 8 -4 11 -13 14 -31 9 -14 -3 -25 -2 -25 4 0 5 -7 12 -15 16 -9 3 -15 0 -15 -8z m574 -191 c-4 -9 15 -35 48 -68 30 -29 65 -75 77 -101 16 -33 27 -44 35 -37 8 7 11 -25 12 -122 1 -73 0 -118 -2 -102 -21 158 -29 195 -51 239 -29 58 -70 116 -82 116 -4 0 -6 -22 -3 -48 6 -67 -15 -157 -44 -190 l-24 -27 22 50 c29 68 35 170 14 235 -9 28 -14 55 -11 60 9 15 15 12 9 -5z m-400 -111 c9 -8 16 -20 16 -26 0 -6 9 -8 21 -5 29 8 77 -11 84 -33 3 -11 1 -28 -4 -39 -10 -17 -7 -20 20 -26 43 -10 57 -45 36 -91 -21 -44 -21 -47 3 -39 30 10 70 -35 70 -79 0 -76 -41 -123 -168 -191 -48 -26 -104 -63 -126 -84 -25 -23 -35 -29 -28 -15 18 34 78 82 145 115 34 17 77 42 95 56 43 32 74 94 66 130 -16 68 -56 71 -122 10 -52 -48 -92 -77 -106 -77 -5 0 4 10 20 22 121 93 187 228 112 228 -41 0 -49 12 -36 48 11 28 10 35 -2 43 -14 9 -43 8 -79 -2 -9 -2 -17 6 -21 21 -4 19 -13 26 -38 28 -70 7 -178 -91 -243 -220 -38 -75 -50 -193 -26 -250 18 -44 68 -78 113 -78 41 0 156 52 219 99 73 54 86 59 35 12 -88 -81 -212 -137 -276 -125 -45 8 -99 59 -112 106 -14 51 2 179 29 237 48 101 145 210 209 234 30 11 79 7 94 -9z m-880 -575 c3 -13 -3 -6 -13 16 -11 22 -20 47 -20 55 0 17 23 -34 33 -71z m125 -204 c0 -12 -45 41 -60 70 -6 11 5 2 25 -20 19 -22 35 -44 35 -50z m-130 -91 c40 -17 134 -84 127 -91 -3 -3 -27 11 -54 31 -28 20 -69 43 -93 52 -41 14 -125 21 -135 11 -3 -2 3 -20 12 -40 15 -31 15 -57 2 -112 -3 -10 42 -18 204 -35 69 -7 112 -17 146 -34 49 -25 84 -56 63 -56 -6 0 -11 4 -11 8 0 4 -21 18 -47 31 -33 16 -91 28 -202 42 -159 20 -170 18 -171 -19 0 -24 -39 -90 -66 -111 -15 -12 -25 -24 -22 -27 3 -3 64 -10 134 -15 71 -5 146 -14 166 -20 34 -9 78 -49 78 -71 0 -6 -9 0 -19 13 -16 20 -28 24 -75 24 -47 0 -54 2 -39 12 9 7 14 15 12 18 -3 2 -52 8 -110 11 -124 8 -214 26 -249 52 -14 10 -35 38 -48 63 -19 36 -22 53 -17 93 8 63 27 109 59 141 36 36 53 33 48 -9 -5 -44 15 -57 39 -25 21 27 26 19 7 -11 -15 -24 -6 -35 51 -61 40 -17 41 -17 51 1 16 29 12 76 -9 101 -18 23 -19 23 -47 4 l-29 -18 19 22 c42 47 144 58 225 25z m322 -401 c13 -15 12 -15 -8 -5 -30 16 -59 15 -77 -3 -22 -22 -32 -18 -11 5 22 25 77 27 96 3z m-2 -169 c-15 -19 -33 -18 -50 3 -13 15 -12 15 7 5 30 -16 44 2 46 58 l2 45 3 -48 c3 -28 -1 -55 -8 -63z m-329 52 c0 -23 28 -56 46 -56 7 0 16 17 19 38 11 63 13 68 14 32 0 -19 -2 -45 -5 -57 -8 -31 -49 -30 -69 0 -17 27 -33 101 -16 77 6 -8 11 -24 11 -34z m262 19 c3 -14 2 -25 -2 -25 -4 0 -10 11 -12 25 -3 14 -2 25 2 25 4 0 10 -11 12 -25z"/>
<path d="M101 914 c-12 -15 -26 -45 -31 -68 -6 -22 -13 -46 -15 -53 -8 -23 26 -100 55 -128 34 -32 71 -35 108 -8 27 20 57 70 68 116 6 25 2 29 -39 47 -59 26 -107 67 -107 90 0 31 -17 32 -39 4z"/>
<path d="M2077 1845 c-30 -21 -37 -32 -37 -59 l0 -34 -34 34 c-19 19 -40 34 -47 34 -8 0 0 -9 18 -20 37 -22 53 -48 53 -84 0 -14 5 -26 11 -26 6 0 10 12 9 28 -6 90 11 123 75 141 21 6 24 9 10 10 -11 1 -37 -10 -58 -24z"/>
<path d="M2187 1840 c64 -39 89 -137 54 -216 l-22 -49 29 28 c54 52 105 23 105 -61 0 -39 1 -42 7 -19 18 61 -23 124 -74 115 -19 -4 -21 0 -22 56 0 36 -7 74 -17 93 -17 33 -62 73 -81 73 -6 0 3 -9 21 -20z"/>
<path d="M945 970 c-3 -4 24 -66 60 -137 36 -70 65 -133 65 -140 0 -6 16 -20 34 -31 19 -12 44 -38 55 -59 20 -38 70 -103 71 -92 0 3 -13 23 -30 44 -16 21 -30 43 -30 49 0 16 -62 76 -78 76 -7 0 -12 6 -12 12 0 7 -28 68 -62 135 -34 67 -60 124 -57 127 3 3 37 -6 76 -19 93 -32 220 -41 288 -21 28 9 37 14 20 11 -130 -22 -232 -13 -336 29 -32 14 -61 21 -64 16z"/>
<path d="M1385 778 c-19 -22 -25 -40 -23 -64 2 -29 -3 -37 -39 -63 -43 -31 -59 -53 -73 -100 -4 -14 -11 -34 -15 -43 -4 -10 -3 -18 3 -18 5 0 13 17 17 37 11 58 31 89 79 120 42 26 44 30 40 63 -8 52 24 90 76 90 21 0 41 -4 45 -9 3 -6 -9 -7 -30 -4 -29 5 -41 1 -60 -17 -34 -32 -32 -63 6 -94 17 -14 27 -26 24 -26 -4 0 -1 -7 6 -16 9 -11 23 -14 49 -10 24 4 30 3 20 -4 -8 -5 -27 -10 -41 -10 -21 0 -32 -10 -55 -52 -26 -48 -29 -61 -26 -130 4 -142 4 -153 -6 -205 -11 -55 -35 -108 -52 -116 -6 -3 -5 -4 2 -3 20 4 48 59 60 118 10 53 10 63 6 206 -3 67 0 83 22 122 18 31 33 46 50 48 38 6 120 63 126 88 8 31 -12 63 -50 79 -18 8 -38 21 -46 29 -7 10 -28 16 -50 16 -31 0 -44 -6 -65 -32z m193 -45 c7 -10 11 -26 10 -37 -3 -20 -68 -76 -68 -58 0 6 12 17 27 24 15 7 29 21 31 31 5 25 -27 58 -51 55 -11 -2 -22 2 -24 9 -6 18 59 -3 75 -24z"/>
<path d="M1061 623 c-14 -51 -68 -129 -146 -212 -99 -105 -248 -170 -352 -154 -45 7 -42 -8 12 -62 35 -36 52 -45 78 -45 53 0 124 25 186 66 118 77 331 328 316 373 -6 21 -60 71 -75 71 -5 0 -14 -17 -19 -37z"/>
<path d="M1342 637 c-46 -31 -76 -97 -69 -153 2 -24 1 -42 -2 -39 -4 2 -6 -10 -4 -28 3 -25 -4 -17 -31 39 -53 106 -55 107 -112 27 -58 -83 -130 -162 -206 -226 -60 -51 -177 -117 -207 -117 -9 0 -22 -5 -27 -10 -19 -19 -76 16 -145 87 -81 84 -105 118 -130 185 -10 29 -17 40 -14 23 12 -61 51 -122 128 -202 64 -66 96 -90 162 -123 46 -22 91 -40 102 -40 10 1 -6 10 -36 20 -30 11 -60 25 -65 31 -6 5 12 1 39 -11 28 -12 93 -28 145 -35 l95 -14 -80 3 -80 4 65 -9 c36 -5 84 -14 108 -19 81 -19 135 -13 180 20 23 16 54 31 69 31 16 1 42 5 58 10 20 5 9 6 -30 2 -43 -4 -70 -14 -99 -34 -21 -16 -46 -29 -55 -29 -9 0 7 14 36 31 28 16 66 47 84 67 18 20 30 30 27 22 -3 -8 -9 -22 -12 -31 -6 -13 0 -15 36 -10 34 5 47 13 65 40 13 19 23 43 23 55 0 12 6 41 14 65 11 38 11 54 -2 104 -18 71 -7 133 34 198 22 35 24 46 15 65 -13 29 -36 30 -79 1z"/>
<path d="M155 410 c-4 -6 4 -19 17 -30 19 -16 20 -19 6 -20 -35 0 -17 -20 18 -20 43 0 42 15 -5 47 l-32 22 35 -6 c24 -4 36 -2 36 6 0 14 -67 15 -75 1z"/>
<path d="M250 300 c0 -5 7 -6 17 -3 11 4 14 3 9 -5 -4 -6 5 -19 20 -29 27 -17 27 -18 5 -23 -39 -9 -28 -25 14 -22 57 5 62 16 18 43 l-38 24 33 3 c53 5 36 22 -23 22 -30 0 -55 -4 -55 -10z"/>
<path d="M135 155 c-5 -2 -22 -6 -37 -9 -16 -4 -28 -10 -28 -15 0 -5 25 -26 56 -47 l55 -38 -53 -18 c-29 -10 -71 -18 -93 -19 -35 -2 -36 -3 -10 -7 35 -5 194 18 201 29 2 4 -6 13 -18 20 -13 7 -43 27 -67 46 l-44 33 42 0 c23 0 40 4 37 8 -3 5 8 6 25 4 17 -3 29 0 29 7 0 10 -70 15 -95 6z"/>
</g>
<g id="layer103" fill="#b5015c" stroke="none">
<path d="M1343 631 c-59 -43 -94 -146 -61 -179 9 -9 9 -12 0 -12 -7 0 -12 -14 -12 -32 -1 -30 -4 -26 -34 37 -50 106 -56 108 -109 37 -137 -186 -250 -281 -417 -350 -24 -10 -24 -10 25 -32 30 -13 87 -25 140 -31 50 -4 106 -13 125 -19 64 -19 100 -12 158 28 30 20 65 53 78 72 27 40 32 34 8 -12 l-16 -31 43 7 c57 8 73 29 94 123 15 66 15 85 5 129 -17 69 -7 135 29 198 27 50 29 73 7 88 -17 11 -20 10 -63 -21z"/>
</g>
<g id="layer104" fill="#546068" stroke="none">
<path d="M870 2542 c0 -5 25 -36 55 -69 35 -39 51 -63 43 -66 -8 -3 -6 -6 5 -6 26 -1 21 11 -23 54 -39 38 -53 64 -27 49 6 -4 1 5 -12 19 -24 27 -41 34 -41 19z"/>
<path d="M1306 2544 c7 -3 10 -13 8 -22 -5 -20 26 -87 41 -88 11 0 124 -104 114 -104 -3 0 -37 16 -76 35 -72 35 -99 43 -88 25 3 -5 0 -10 -7 -10 -8 0 -6 -5 5 -11 9 -6 15 -14 12 -20 -4 -5 -2 -9 4 -9 5 0 18 -3 28 -7 10 -3 7 3 -10 17 -38 31 -27 36 16 8 78 -51 76 -49 32 -44 -22 2 -53 7 -70 11 l-30 6 28 -25 c36 -33 99 -50 165 -43 52 6 56 4 110 -38 32 -25 68 -53 81 -63 21 -16 23 -22 14 -49 -14 -38 -2 -63 21 -44 17 14 19 13 30 -40 3 -16 15 -29 28 -32 19 -5 20 -8 7 -24 -13 -16 -12 -17 4 -4 22 18 22 28 -3 36 -16 5 -18 10 -10 25 16 29 11 38 -5 10 -20 -34 -19 -15 2 42 l17 48 -35 36 c-18 21 -27 34 -19 29 8 -4 -2 9 -23 29 -21 20 -41 36 -45 36 -4 -1 9 -14 28 -30 42 -37 30 -40 -17 -4 -43 33 -34 47 26 40 35 -4 40 -3 21 4 -21 8 -19 9 14 5 26 -3 51 2 77 16 41 20 51 39 22 39 -13 0 -15 -2 -5 -8 17 -11 -31 -34 -55 -26 -15 5 -16 4 -3 -5 16 -12 -42 -8 -135 10 -55 10 -131 50 -128 66 1 6 -10 21 -25 34 l-27 24 24 -27 c14 -16 20 -28 14 -28 -12 0 -55 45 -48 51 2 3 -12 21 -33 40 l-37 34 34 -37 c43 -47 30 -50 -17 -5 -30 28 -33 29 -27 10 10 -36 -5 -27 -21 13 -8 19 -12 44 -9 55 5 14 2 19 -12 18 -10 0 -13 -3 -7 -5z"/>
<path d="M790 2478 c0 -7 23 -36 52 -65 47 -48 50 -53 28 -53 -13 0 -21 -3 -17 -6 3 -4 17 -4 31 0 24 6 23 7 -30 57 -49 47 -72 82 -42 63 7 -4 8 -3 4 4 -9 16 -26 15 -26 0z"/>
<path d="M1220 2476 c0 -7 7 -19 15 -26 8 -7 15 -9 15 -5 0 5 10 0 22 -11 15 -13 12 -7 -7 18 -32 39 -45 46 -45 24z"/>
<path d="M996 2465 c23 -17 12 -20 -19 -4 -13 7 -4 -7 21 -34 61 -63 49 -65 -103 -17 l-30 9 27 -23 c15 -13 45 -27 67 -31 77 -13 53 -25 -51 -26 -98 -1 -101 -1 -71 -15 34 -14 98 -19 193 -14 51 3 62 -1 123 -39 37 -24 67 -46 67 -50 0 -3 -7 -16 -15 -28 -12 -18 -13 -23 -1 -32 11 -9 17 -8 29 3 16 16 37 4 37 -23 0 -10 7 -8 25 9 14 13 25 29 25 36 0 7 -29 35 -65 63 -36 28 -65 56 -65 61 0 6 15 10 33 11 l32 1 -30 8 c-68 16 -225 104 -211 117 8 8 -13 33 -27 33 -6 0 -2 -7 9 -15z"/>
<path d="M1090 2405 c0 -7 70 -47 78 -43 5 2 -11 13 -35 25 -24 12 -43 21 -43 18z"/>
<path d="M1210 2381 c0 -6 5 -13 11 -17 8 -4 7 -9 -2 -15 -11 -7 -10 -9 5 -9 13 0 16 5 12 16 -5 12 -2 15 11 10 15 -5 15 -4 -1 9 -23 17 -36 19 -36 6z"/>
<path d="M716 2369 c3 -5 15 -14 27 -19 22 -11 22 -11 2 6 -19 16 -19 16 10 9 16 -3 26 -3 22 1 -11 11 -68 14 -61 3z"/>
<path d="M1510 2365 c0 -10 100 -55 122 -54 19 1 17 2 -7 8 -16 4 -49 18 -72 30 -24 12 -43 19 -43 16z"/>
<path d="M1220 2302 c0 -5 13 -7 30 -4 19 3 38 -3 56 -17 15 -12 31 -21 37 -21 5 0 -7 11 -27 25 -35 24 -96 34 -96 17z"/>
<path d="M1040 2291 c39 -4 69 -16 103 -39 49 -34 58 -60 19 -54 -16 2 -22 -2 -22 -15 0 -15 2 -16 10 -3 5 8 12 11 16 7 9 -8 34 11 34 27 0 6 -26 28 -58 49 -49 31 -67 37 -108 36 l-49 -2 55 -6z"/>
<path d="M1309 2231 c17 -16 22 -28 19 -51 -3 -20 1 -35 11 -43 12 -10 13 -9 6 3 -5 8 -8 29 -6 46 2 25 -3 34 -26 48 l-28 17 24 -20z"/>
<path d="M1410 2244 c60 -8 128 -8 123 -1 -2 4 -37 6 -76 6 -40 -1 -61 -3 -47 -5z"/>
<path d="M1550 2226 c0 -2 14 -14 30 -26 17 -12 30 -19 30 -16 0 2 -13 14 -30 26 -16 12 -30 19 -30 16z"/>
<path d="M1638 2165 c23 -18 29 -40 12 -48 -6 -3 -5 -4 2 -3 22 4 14 38 -12 54 -25 14 -25 14 -2 -3z"/>
<path d="M1170 2142 c0 -12 -6 -22 -12 -23 -7 0 -36 -2 -64 -3 -53 -3 -104 -27 -139 -66 -18 -20 -18 -20 31 -20 27 0 56 -5 64 -10 11 -7 1 -10 -36 -10 -54 0 -188 -32 -242 -57 -18 -8 -60 -43 -95 -77 l-62 -61 40 -5 40 -6 -35 -8 c-19 -4 -43 -10 -54 -13 -13 -3 -16 -1 -11 7 6 9 3 9 -13 1 -26 -14 -82 -84 -82 -103 0 -8 -16 -34 -36 -59 l-36 -44 41 42 c22 23 41 51 41 61 0 11 7 25 15 32 18 15 19 7 3 -21 -11 -18 -10 -23 0 -26 9 -4 3 -11 -16 -23 -16 -10 -41 -42 -56 -71 -61 -122 -18 -307 110 -474 19 -26 33 -49 31 -51 -4 -5 -34 28 -70 76 -18 25 -18 25 -1 -5 22 -39 64 -85 76 -82 5 1 26 -18 46 -42 20 -25 31 -41 23 -37 -9 6 -12 5 -9 -5 3 -8 10 -13 15 -12 12 2 3 -70 -11 -79 -8 -5 -7 -8 2 -8 7 0 17 10 22 23 l9 22 0 -22 c1 -26 27 -30 79 -12 27 9 37 8 65 -10 41 -25 86 -81 116 -143 22 -47 31 -142 16 -188 -3 -11 -4 -20 -2 -20 10 0 65 96 77 133 12 37 10 43 -40 140 -91 179 -123 265 -123 332 0 66 19 114 55 139 25 18 64 21 73 6 4 -6 -6 -10 -23 -10 -29 0 -50 -17 -71 -58 -11 -21 -11 -22 16 -16 l28 7 -29 -23 c-27 -22 -28 -27 -23 -77 7 -64 16 -77 73 -102 220 -98 473 -48 685 136 31 26 79 67 107 91 27 23 60 58 73 77 13 19 27 35 30 35 4 0 4 -30 1 -68 -5 -79 14 -136 52 -153 51 -24 69 5 40 66 -9 19 -14 42 -12 52 4 21 38 31 38 11 0 -33 86 -88 138 -88 32 0 87 31 101 58 14 26 -7 44 -76 66 -28 10 -63 26 -78 38 -25 19 -65 86 -65 108 0 20 16 9 34 -25 45 -84 178 -65 241 34 50 81 57 168 15 191 -17 9 -27 4 -68 -39 -27 -27 -60 -53 -75 -56 -46 -12 -90 -11 -94 3 -3 7 4 12 17 12 68 0 150 89 150 163 0 106 -81 178 -148 131 -17 -12 -22 -25 -22 -61 0 -51 -32 -128 -57 -137 -23 -9 -28 1 -15 27 15 29 18 56 9 88 -7 28 -48 55 -70 46 -15 -5 -31 -92 -21 -109 11 -17 7 -179 -4 -190 -8 -8 -10 -2 -6 23 9 52 -14 187 -41 246 -24 53 -72 123 -84 123 -3 0 -6 -37 -6 -83 0 -65 -5 -92 -24 -129 -12 -27 -27 -48 -32 -48 -5 0 -3 13 6 29 8 16 20 61 27 99 10 59 9 79 -6 139 -9 38 -14 77 -10 86 5 13 0 17 -16 17 -19 0 -21 4 -16 26 6 23 4 25 -14 19 -16 -5 -23 -2 -27 14 -6 25 -18 27 -27 5 -4 -10 -13 -13 -26 -9 -31 10 -157 -14 -225 -42 -33 -14 -82 -41 -109 -61 -36 -26 -46 -30 -38 -15 6 11 36 37 66 58 l55 38 -30 38 c-17 21 -27 43 -24 49 4 7 -2 9 -19 4 -19 -4 -28 -2 -32 10 -4 11 -13 15 -26 10 -12 -3 -27 1 -39 12 -18 16 -19 16 -19 -4z m182 -306 c9 -21 16 -24 39 -19 56 11 103 -49 67 -85 -9 -9 -7 -12 10 -12 12 0 31 -9 43 -21 21 -21 22 -45 4 -90 -4 -12 1 -18 19 -23 33 -8 56 -44 58 -90 2 -63 -41 -109 -167 -182 -60 -34 -122 -78 -137 -96 -33 -38 -37 -29 -8 18 18 29 107 94 128 94 20 0 114 69 137 100 43 58 28 140 -26 140 -11 0 -44 -22 -72 -49 -47 -44 -86 -71 -102 -71 -3 0 25 29 63 65 103 97 129 174 61 183 -36 5 -44 18 -29 47 12 22 12 28 -3 42 -14 15 -22 15 -50 5 -45 -16 -45 -16 -49 16 -3 23 -8 27 -38 30 -71 6 -168 -85 -239 -223 -41 -80 -52 -202 -23 -254 25 -45 76 -73 123 -68 45 6 171 68 224 111 66 53 74 51 16 -4 -73 -69 -180 -123 -248 -124 -64 -1 -99 22 -132 87 -22 46 -23 52 -13 132 23 178 171 365 289 365 36 0 45 -4 55 -24z m-777 -76 c-10 -11 -23 -20 -28 -20 -6 0 -2 9 8 20 10 11 23 20 28 20 6 0 2 -9 -8 -20z"/>
<path d="M1030 2130 c-11 -8 -7 -9 15 -4 37 8 45 14 19 14 -10 0 -26 -5 -34 -10z"/>
<path d="M1326 2111 c-3 -4 9 -25 27 -46 31 -36 35 -37 62 -27 l30 12 -32 -6 c-27 -4 -35 -1 -55 27 -13 17 -22 35 -20 40 3 12 -5 12 -12 0z"/>
<path d="M1627 2086 c-4 -11 -25 -16 -69 -19 l-63 -3 61 -2 c45 -1 65 2 74 13 7 9 11 18 8 21 -3 3 -8 -2 -11 -10z"/>
<path d="M935 2064 c-9 -14 -15 -27 -13 -30 2 -2 12 10 22 26 21 37 15 40 -9 4z"/>
<path d="M1740 1953 c0 -6 9 -21 21 -34 l20 -24 -17 30 c-24 39 -24 40 -24 28z"/>
<path d="M1820 1863 c18 -24 35 -43 37 -43 7 0 -35 56 -54 71 -9 8 -2 -5 17 -28z"/>
<path d="M2094 1854 c-10 -8 -13 -12 -6 -9 8 4 26 11 40 15 22 7 23 8 6 9 -11 1 -29 -6 -40 -15z"/>
<path d="M2208 1828 c13 -14 30 -43 37 -65 8 -21 14 -30 15 -20 0 25 -24 69 -51 92 l-24 20 23 -27z"/>
<path d="M2052 1828 c-7 -7 -12 -26 -12 -44 l0 -32 -34 34 c-19 19 -40 34 -47 34 -8 0 0 -9 18 -20 35 -21 53 -48 53 -79 0 -12 4 -21 9 -21 5 0 9 25 10 56 0 31 5 62 12 70 14 17 8 19 -9 2z"/>
<path d="M2242 1626 c-13 -28 -2 -35 18 -11 23 28 67 18 88 -20 6 -11 12 -14 12 -7 0 25 -41 54 -71 50 -16 -3 -30 0 -32 5 -1 5 -8 -2 -15 -17z"/>
<path d="M414 1445 c1 -68 7 -118 15 -130 12 -20 12 -20 6 0 -4 11 -11 70 -15 130 l-8 110 2 -110z"/>
<path d="M2239 1254 c23 -16 24 -30 7 -79 -5 -13 -2 -12 8 5 8 14 15 32 16 41 0 17 -30 49 -46 49 -4 0 2 -7 15 -16z"/>
<path d="M1805 1208 l-50 -53 48 45 47 44 0 -27 c0 -58 54 -147 89 -147 10 0 7 5 -8 13 -34 17 -62 68 -70 128 l-6 50 -50 -53z"/>
<path d="M2006 1132 c3 -13 0 -31 -7 -40 -12 -16 -12 -16 6 0 15 14 17 21 7 40 l-12 23 6 -23z"/>
<path d="M2113 1123 c15 -2 37 -2 50 0 12 2 0 4 -28 4 -27 0 -38 -2 -22 -4z"/>
<path d="M1635 1064 l-30 -26 33 22 c17 12 32 23 32 26 0 7 -4 5 -35 -22z"/>
<path d="M260 981 c-36 -19 -108 -91 -91 -91 5 0 16 11 25 25 20 30 53 53 104 71 21 7 28 13 17 13 -11 0 -36 -8 -55 -18z"/>
<path d="M156 968 c-3 -13 -5 -32 -5 -43 1 -11 5 -2 10 19 10 42 6 62 -5 24z"/>
<path d="M106 959 c-14 -11 -31 -30 -37 -42 -7 -15 -2 -11 17 10 16 17 38 36 49 42 11 6 15 11 9 11 -6 0 -23 -9 -38 -21z"/>
<path d="M308 975 c-3 -3 3 -21 12 -40 14 -27 16 -44 9 -72 -5 -25 -4 -40 3 -44 6 -4 70 -12 142 -19 139 -13 237 -44 256 -81 16 -29 11 -34 -12 -13 -33 28 -88 51 -139 58 -24 3 -84 10 -134 16 -49 6 -100 13 -112 16 -17 3 -23 0 -23 -13 -1 -29 -35 -96 -65 -126 -15 -15 -26 -29 -24 -32 3 -2 52 -7 109 -10 172 -10 231 -28 257 -78 20 -39 9 -46 -19 -12 -20 23 -31 26 -83 26 -52 0 -58 2 -42 13 16 12 14 14 -14 20 -40 8 -59 -14 -57 -64 l1 -35 6 39 c8 50 29 60 23 11 -2 -19 6 -67 18 -107 39 -128 111 -174 235 -149 139 28 250 114 282 217 26 87 23 158 -10 227 -35 71 -111 141 -137 127 -10 -6 -46 -10 -80 -10 -67 0 -111 18 -191 76 -26 19 -66 41 -89 49 -42 15 -111 20 -122 10z m96 -210 c29 -29 -7 -65 -45 -45 -24 13 -25 36 -1 49 23 14 28 13 46 -4z m377 -185 c28 -22 19 -25 -27 -8 -29 10 -36 9 -54 -7 -11 -10 -23 -15 -28 -11 -11 11 37 46 63 46 13 0 33 -9 46 -20z m-329 -113 c1 -14 10 -36 20 -49 22 -30 39 -14 48 44 5 32 9 38 14 25 12 -27 -3 -86 -24 -97 -39 -21 -80 29 -80 98 0 34 19 16 22 -21z m342 9 c4 -18 2 -46 -4 -60 -8 -22 -15 -27 -37 -24 -28 3 -45 26 -58 81 -11 44 12 32 27 -15 20 -58 48 -64 49 -11 1 21 1 44 0 51 -4 29 17 9 23 -22z"/>
<path d="M361 761 c-18 -12 -5 -31 20 -31 14 0 19 6 17 17 -4 20 -18 26 -37 14z"/>
<path d="M953 957 c-2 -14 1 -17 6 -9 4 8 15 10 27 6 23 -9 17 -1 -11 14 -18 9 -21 7 -22 -11z"/>
<path d="M1445 959 c-22 -10 -29 -16 -15 -13 28 7 80 33 65 33 -5 0 -28 -9 -50 -20z"/>
<path d="M520 946 c0 -2 14 -14 30 -26 17 -12 30 -19 30 -16 0 2 -13 14 -30 26 -16 12 -30 19 -30 16z"/>
<path d="M1065 925 c22 -8 51 -13 65 -13 14 0 0 6 -30 13 -69 18 -88 17 -35 0z"/>
<path d="M980 885 c0 -5 18 -41 40 -80 22 -38 39 -65 39 -60 0 6 -18 42 -39 80 -22 39 -40 66 -40 60z"/>
<path d="M35 810 c-4 -28 -5 -53 -2 -56 2 -3 7 19 11 47 4 28 5 53 3 56 -3 2 -8 -19 -12 -47z"/>
<path d="M1389 783 l-24 -28 26 23 c33 28 89 30 114 2 10 -11 25 -20 34 -19 12 0 10 3 -4 9 -12 4 -27 15 -34 24 -22 27 -83 21 -112 -11z"/>
<path d="M1401 764 c-29 -37 -26 -60 9 -86 17 -12 30 -27 30 -34 0 -17 35 -27 61 -19 15 5 19 4 15 -4 -4 -6 10 0 31 14 51 35 56 43 11 17 -21 -12 -38 -18 -38 -14 0 11 17 34 24 33 21 -3 26 2 26 28 0 32 -20 54 -42 46 -9 -4 -22 4 -32 19 -23 35 -67 35 -95 0z"/>
<path d="M1573 744 c5 -7 12 -25 17 -41 7 -23 8 -24 9 -7 1 12 -7 30 -16 41 -10 10 -14 13 -10 7z"/>
<path d="M1361 718 c3 -28 -2 -41 -16 -53 -19 -14 -18 -15 7 -4 23 10 26 15 21 48 -8 49 -16 55 -12 9z"/>
<path d="M60 687 c0 -2 15 -16 33 -33 l32 -29 -29 33 c-28 30 -36 37 -36 29z"/>
<path d="M1065 624 c-8 -20 -15 -38 -15 -41 0 -11 -93 -133 -137 -178 -94 -99 -243 -165 -339 -150 -48 7 -53 2 -27 -27 9 -10 14 -20 11 -23 -3 -3 -31 23 -63 57 -32 34 -53 54 -47 43 6 -11 48 -56 94 -100 45 -44 67 -63 48 -43 -18 21 -29 38 -24 38 6 0 21 -11 34 -25 17 -18 34 -25 59 -25 43 1 137 38 194 77 64 44 192 178 252 264 54 77 55 80 41 108 -8 15 -26 35 -40 45 -25 16 -26 16 -41 -20z"/>
<path d="M1293 628 c-25 -28 -43 -62 -43 -80 1 -7 8 3 16 22 8 19 25 45 36 57 12 13 19 23 16 23 -2 0 -14 -10 -25 -22z"/>
<path d="M140 620 c8 -5 24 -10 34 -10 26 0 18 6 -19 14 -22 5 -26 4 -15 -4z"/>
<path d="M1438 593 c-18 -21 -38 -58 -38 -70 0 -4 11 10 23 32 16 28 31 42 52 46 29 6 29 7 4 8 -14 0 -33 -7 -41 -16z"/>
<path d="M1171 585 c7 -19 64 -94 72 -95 4 0 7 10 7 23 0 14 -3 18 -8 10 -6 -9 -18 0 -41 30 -18 23 -32 38 -30 32z"/>
<path d="M1383 430 c0 -25 2 -35 4 -22 2 12 2 32 0 45 -2 12 -4 2 -4 -23z"/>
<path d="M391 440 c0 -8 4 -24 9 -35 5 -13 9 -14 9 -5 0 8 -4 24 -9 35 -5 13 -9 14 -9 5z"/>
<path d="M155 409 c-8 -12 26 -40 39 -32 5 4 6 1 2 -5 -4 -7 -14 -12 -22 -12 -8 0 -14 -4 -14 -10 0 -5 16 -10 35 -10 19 0 35 4 35 8 0 12 -36 43 -42 37 -3 -3 -11 1 -17 9 -11 13 -8 14 23 9 24 -4 36 -2 36 6 0 14 -67 15 -75 0z"/>
<path d="M1394 322 c1 -45 3 -57 10 -42 5 12 5 37 -1 62 -9 43 -9 43 -9 -20z"/>
<path d="M250 301 c0 -5 9 -7 20 -4 12 3 20 0 20 -6 0 -7 -6 -9 -12 -6 -7 4 1 -5 17 -19 28 -24 29 -26 8 -26 -24 0 -39 -15 -24 -24 5 -4 12 -3 15 2 3 5 18 7 34 4 43 -6 48 14 10 35 -18 9 -37 16 -41 15 -5 -1 -6 2 -2 8 3 5 19 10 36 10 53 0 30 15 -26 17 -30 1 -55 -2 -55 -6z"/>
<path d="M885 230 c-14 -23 -146 -99 -172 -100 -28 0 -10 -18 35 -36 58 -22 222 -36 195 -16 -10 7 -35 15 -56 19 -48 7 -56 26 -28 61 31 40 53 82 42 82 -5 0 -13 -5 -16 -10z"/>
<path d="M165 150 c44 -11 65 -11 65 0 0 6 -21 9 -47 9 -43 -1 -45 -2 -18 -9z"/>
<path d="M91 143 c3 -20 -2 -26 -11 -13 -6 9 -10 10 -10 3 0 -16 17 -26 25 -13 3 5 25 11 48 11 40 1 40 2 12 9 -41 10 -65 11 -64 3z"/>
<path d="M146 82 c-4 -6 3 -16 16 -23 22 -12 22 -12 3 -19 -18 -7 -17 -8 7 -15 32 -8 66 1 52 15 -5 5 -16 10 -24 12 -8 2 -22 12 -31 22 -10 13 -18 16 -23 8z"/>
<path d="M1213 83 c9 -2 25 -2 35 0 9 3 1 5 -18 5 -19 0 -27 -2 -17 -5z"/>
<path d="M750 70 c8 -5 24 -10 34 -10 26 0 18 6 -19 14 -22 5 -26 4 -15 -4z"/>
<path d="M888 43 c12 -2 32 -2 45 0 12 2 2 4 -23 4 -25 0 -35 -2 -22 -4z"/>
<path d="M1126 38 c-11 -6 -47 -9 -90 -6 -40 3 -62 2 -51 -3 35 -13 130 -10 151 6 22 17 17 19 -10 3z"/>
<path d="M100 20 c-8 -5 -35 -10 -60 -11 -34 -2 -38 -3 -15 -6 16 -3 54 -2 85 2 42 6 50 9 35 16 -27 10 -28 10 -45 -1z"/>
</g>
<g id="layer105" fill="#ca4d4b" stroke="none">
<path d="M247 941 c-27 -17 -56 -50 -57 -62 0 -4 21 -17 47 -29 45 -21 47 -21 60 -3 16 20 9 80 -10 100 -10 10 -18 9 -40 -6z"/>
<path d="M107 922 c-21 -23 -47 -102 -47 -144 0 -63 58 -138 107 -138 36 0 92 58 108 112 l14 47 -60 27 c-58 26 -93 60 -100 98 -4 17 -5 17 -22 -2z"/>
<path d="M1370 324 c0 -10 -6 -31 -14 -46 -8 -15 -17 -40 -21 -57 -7 -31 -33 -63 -75 -94 l-25 -18 35 6 c19 3 42 13 51 23 18 19 65 189 55 199 -3 3 -6 -2 -6 -13z"/>
<path d="M850 202 c-58 -40 -121 -72 -139 -72 -26 0 -7 -19 37 -36 58 -22 222 -36 195 -16 -10 7 -35 15 -56 19 -48 7 -56 26 -28 61 20 26 54 83 49 81 -2 0 -28 -17 -58 -37z"/>
</g>
<g id="layer106" fill="#975f8c" stroke="none">
<path d="M870 2541 c0 -11 19 -25 38 -27 10 -2 8 3 -4 17 -18 20 -34 25 -34 10z"/>
<path d="M1370 2487 c0 -2 15 -16 33 -33 l32 -29 -29 33 c-28 30 -36 37 -36 29z"/>
<path d="M1350 2472 c0 -5 9 -21 20 -35 23 -29 27 -45 7 -28 -10 8 -14 7 -14 -3 0 -8 8 -13 17 -11 16 3 96 -53 87 -61 -2 -2 -36 12 -76 32 -85 42 -114 41 -49 -2 89 -57 87 -55 43 -50 -22 2 -53 8 -70 12 -30 7 -30 7 -11 -14 29 -33 109 -55 173 -49 53 6 57 4 111 -38 32 -25 68 -53 81 -63 21 -16 23 -22 14 -49 -13 -37 -2 -63 20 -45 17 14 27 6 28 -22 0 -15 6 -10 19 19 10 22 19 47 19 56 1 16 -40 58 -102 103 -20 15 -35 31 -32 36 3 5 29 13 58 17 l52 7 -69 8 c-93 11 -155 42 -248 122 -43 37 -78 63 -78 58z"/>
<path d="M1232 2453 c6 -7 13 -11 16 -8 3 3 15 -3 26 -12 18 -15 18 -14 -2 8 -23 27 -62 38 -40 12z"/>
<path d="M1510 2365 c0 -7 81 -47 86 -43 2 3 -17 14 -41 26 -25 12 -45 20 -45 17z"/>
<path d="M1255 2303 c17 -3 39 -12 50 -21 20 -17 20 -17 1 6 -13 15 -29 22 -50 21 l-31 -2 30 -4z"/>
<path d="M1010 2294 c37 -8 88 -9 84 -2 -3 4 -26 7 -52 7 -26 -1 -40 -3 -32 -5z"/>
<path d="M1460 2246 c0 -2 18 -6 39 -8 22 -2 37 0 35 4 -5 8 -74 11 -74 4z"/>
<path d="M1179 2228 c16 -22 7 -38 -19 -31 -15 4 -20 0 -20 -13 0 -15 2 -16 9 -5 5 7 13 11 19 7 5 -3 15 1 23 10 10 12 9 18 -6 32 -18 16 -18 16 -6 0z"/>
<path d="M1170 2142 c0 -12 -6 -22 -12 -23 -7 0 -34 -2 -60 -4 -28 -1 -65 -13 -91 -28 -51 -30 -71 -61 -34 -52 27 6 79 -7 84 -22 3 -8 -9 -10 -34 -6 -49 6 -222 -38 -266 -69 -41 -27 -127 -110 -127 -121 0 -5 8 -6 19 -2 10 3 26 3 35 -1 30 -11 17 -24 -25 -24 -37 0 -48 -6 -92 -50 -28 -28 -48 -53 -44 -56 3 -3 22 -1 44 5 50 14 75 14 97 -2 15 -11 12 -12 -24 -9 -117 11 -210 -85 -210 -217 1 -125 58 -256 175 -401 83 -102 109 -150 100 -181 -8 -23 5 -24 68 -5 l46 14 53 -48 c77 -69 113 -144 113 -238 0 -80 7 -79 46 3 27 58 24 85 -22 172 -65 126 -120 261 -126 312 -6 57 9 110 44 151 27 33 72 40 93 15 10 -12 6 -13 -24 -8 -31 5 -37 2 -55 -28 l-21 -34 22 -5 c21 -5 21 -6 -5 -23 -30 -19 -34 -47 -16 -110 9 -32 18 -41 57 -59 262 -113 478 -59 768 195 43 37 89 83 103 102 13 19 28 35 32 35 5 0 6 -27 2 -60 -10 -99 35 -182 89 -164 22 6 21 22 -3 82 -10 23 -11 37 -3 49 14 23 34 28 34 9 0 -43 110 -104 164 -90 32 8 80 59 73 77 -3 8 -35 25 -71 37 -70 23 -130 76 -142 125 -7 27 5 50 13 27 11 -30 55 -70 84 -76 71 -14 140 28 184 110 31 58 39 102 26 137 -15 39 -40 34 -90 -18 -44 -46 -98 -69 -148 -63 -42 5 -37 23 10 35 55 15 92 45 117 94 25 47 25 82 1 134 -31 69 -79 90 -124 55 -22 -18 -27 -29 -27 -68 0 -50 -24 -109 -52 -126 -23 -14 -35 0 -20 24 21 34 15 88 -13 115 -13 14 -28 25 -33 25 -21 0 -33 -31 -31 -82 5 -150 3 -204 -9 -223 -12 -18 -13 -16 -8 19 14 103 -43 296 -104 351 -20 18 -20 18 -20 -52 0 -75 -12 -122 -42 -165 -30 -43 -41 -33 -16 15 30 57 38 204 14 261 -12 29 -13 42 -5 52 11 14 10 15 -13 18 -7 0 -14 13 -16 27 -2 21 -7 26 -23 22 -15 -4 -19 0 -19 18 -1 22 -2 23 -14 7 -10 -13 -27 -18 -64 -18 -102 0 -232 -43 -311 -104 -19 -14 -37 -24 -39 -21 -8 8 39 54 84 83 l42 26 -29 33 c-16 19 -29 40 -29 47 0 9 -8 12 -25 8 -19 -3 -25 0 -25 12 0 13 -4 15 -17 7 -14 -7 -24 -4 -40 11 l-23 21 0 -21z m176 -297 c16 -17 36 -25 58 -25 44 0 71 -29 63 -70 -5 -24 -3 -30 10 -30 43 0 64 -50 44 -103 -9 -22 -7 -25 18 -30 37 -8 66 -65 57 -112 -6 -31 -78 -125 -97 -125 -18 0 -166 -93 -201 -128 -48 -46 -57 -37 -18 16 20 28 53 54 101 79 139 74 189 124 189 189 0 61 -57 74 -106 23 -30 -32 -111 -89 -126 -89 -5 0 27 35 70 78 84 83 115 139 92 167 -7 8 -22 15 -34 15 -40 0 -50 14 -31 43 24 38 11 51 -46 44 -46 -6 -48 -5 -51 21 -7 62 -103 29 -186 -64 -73 -82 -113 -162 -123 -248 -13 -116 13 -174 89 -197 36 -10 46 -8 122 25 46 20 109 56 140 79 83 65 91 66 30 3 -64 -67 -193 -136 -254 -136 -59 0 -110 32 -136 86 -20 40 -22 57 -17 126 4 66 12 94 41 152 62 125 182 236 254 236 13 0 34 -11 48 -25z"/>
<path d="M655 1888 l-50 -53 53 50 c48 46 57 55 49 55 -1 0 -25 -24 -52 -52z"/>
<path d="M2207 1830 c12 -14 29 -41 37 -60 8 -19 15 -29 16 -22 0 21 -26 65 -51 87 l-24 20 22 -25z"/>
<path d="M1977 1800 c35 -21 53 -48 53 -79 0 -12 4 -21 9 -21 6 0 9 19 9 43 -1 23 -3 35 -5 26 -3 -13 -11 -9 -37 17 -19 19 -40 34 -47 34 -8 0 0 -9 18 -20z"/>
<path d="M534 1745 c-20 -25 -35 -47 -33 -49 2 -2 21 19 42 45 47 62 41 64 -9 4z"/>
<path d="M2262 1690 c0 -19 2 -27 5 -17 2 9 2 25 0 35 -3 9 -5 1 -5 -18z"/>
<path d="M2242 1626 c-14 -32 -8 -33 26 -4 15 11 19 18 10 15 -9 -3 -18 -1 -20 5 -2 6 -9 -1 -16 -16z"/>
<path d="M2281 1377 c-29 -35 -30 -38 -7 -17 24 22 52 60 44 60 -2 0 -18 -19 -37 -43z"/>
<path d="M2110 1312 c0 -4 17 -6 38 -4 58 5 62 10 10 11 -27 1 -48 -3 -48 -7z"/>
<path d="M2243 1247 c12 -13 24 -22 26 -20 6 4 -30 43 -40 43 -5 0 2 -10 14 -23z"/>
<path d="M1800 1203 l-45 -48 47 44 47 44 4 -34 4 -34 1 38 c1 20 -2 37 -6 37 -4 0 -28 -21 -52 -47z"/>
<path d="M1709 1123 l-34 -38 38 34 c20 19 37 36 37 38 0 8 -8 0 -41 -34z"/>
<path d="M540 1097 c0 -2 15 -16 33 -33 l32 -29 -29 33 c-28 30 -36 37 -36 29z"/>
<path d="M270 985 c-14 -8 -20 -14 -15 -14 6 0 21 6 35 14 14 8 21 14 15 14 -5 0 -21 -6 -35 -14z"/>
<path d="M308 975 c-3 -3 3 -21 12 -40 14 -27 16 -44 9 -72 -5 -25 -4 -40 3 -44 6 -4 70 -12 142 -19 139 -13 237 -44 256 -81 16 -29 11 -34 -12 -13 -33 28 -88 51 -139 58 -24 3 -84 10 -134 16 -49 6 -100 13 -112 16 -17 3 -23 0 -23 -14 0 -28 -50 -121 -71 -133 -32 -17 -21 -29 26 -29 83 0 239 -21 273 -37 31 -15 70 -68 58 -80 -3 -3 -15 7 -28 22 -20 23 -31 26 -83 26 -52 0 -58 2 -42 13 16 12 14 14 -14 20 -40 8 -59 -14 -57 -64 l1 -35 6 39 c8 50 29 60 23 11 -2 -19 6 -67 18 -107 39 -128 111 -174 235 -149 139 28 250 114 282 217 39 127 9 242 -84 323 -38 34 -48 39 -65 30 -11 -6 -46 -11 -78 -11 -62 0 -111 20 -191 78 -26 19 -66 41 -89 49 -42 15 -111 20 -122 10z m96 -210 c29 -29 -7 -65 -45 -45 -24 13 -25 36 -1 49 23 14 28 13 46 -4z m377 -185 c28 -22 19 -25 -27 -8 -29 10 -36 9 -54 -7 -11 -10 -23 -15 -28 -11 -11 11 37 46 63 46 13 0 33 -9 46 -20z m-327 -113 c3 -19 13 -42 20 -53 19 -26 34 -10 45 47 6 33 10 39 16 26 11 -27 -4 -86 -25 -97 -39 -21 -80 29 -80 97 0 34 16 20 24 -20z m340 9 c4 -18 2 -46 -4 -60 -8 -22 -15 -27 -37 -24 -28 3 -45 26 -58 81 -11 44 12 32 27 -15 8 -24 22 -44 31 -46 14 -3 17 5 17 47 0 58 15 68 24 17z"/>
<path d="M93 948 c-11 -13 -24 -30 -28 -38 -8 -16 -6 -14 34 33 14 15 22 27 19 27 -2 0 -14 -10 -25 -22z"/>
<path d="M1045 930 c11 -5 27 -9 35 -9 9 0 8 4 -5 9 -11 5 -27 9 -35 9 -9 0 -8 -4 5 -9z"/>
<path d="M1037 775 c9 -19 18 -33 21 -31 4 5 -26 66 -33 66 -3 0 3 -16 12 -35z"/>
<path d="M1389 783 l-24 -28 25 21 c14 12 32 24 40 27 13 5 13 6 -1 6 -8 1 -26 -11 -40 -26z"/>
<path d="M1405 770 c-30 -33 -16 -100 21 -100 8 0 14 -9 14 -20 0 -13 9 -22 27 -26 21 -6 31 -2 48 19 11 15 28 27 38 27 12 0 17 8 17 30 0 29 -23 51 -46 43 -6 -2 -19 8 -28 22 -20 31 -65 34 -91 5z"/>
<path d="M80 725 c0 -15 42 -75 53 -76 37 -4 65 5 85 27 12 13 17 19 10 14 -24 -20 -85 -11 -117 16 -17 14 -31 23 -31 19z"/>
<path d="M1362 698 c2 -9 -6 -24 -17 -33 -19 -14 -19 -15 8 -4 30 13 31 17 16 39 -8 13 -9 13 -7 -2z"/>
<path d="M1129 642 c20 -20 38 -36 40 -34 6 3 -61 72 -70 72 -4 0 9 -17 30 -38z"/>
<path d="M1554 651 c-18 -11 -35 -24 -39 -30 -5 -9 59 30 74 45 10 9 -6 3 -35 -15z"/>
<path d="M1060 605 c-23 -53 -77 -128 -148 -206 -76 -83 -189 -138 -301 -146 l-84 -6 52 -50 c51 -48 53 -49 99 -43 91 12 168 60 287 180 89 90 175 195 193 237 4 9 -57 79 -69 79 -6 0 -18 -20 -29 -45z"/>
<path d="M267 593 c18 -2 50 -2 70 0 21 2 7 4 -32 4 -38 0 -55 -2 -38 -4z"/>
<path d="M175 410 c28 -12 55 -12 55 0 0 6 -17 10 -37 9 -31 0 -34 -2 -18 -9z"/>
<path d="M176 379 c3 -5 10 -6 16 -3 7 4 8 2 4 -4 -4 -7 -14 -12 -22 -12 -8 0 -14 -4 -14 -10 0 -5 17 -10 37 -10 35 0 36 1 17 16 -10 8 -12 12 -4 8 12 -6 13 -4 3 6 -15 16 -46 23 -37 9z"/>
<path d="M250 300 c0 -4 9 -6 20 -3 12 3 20 0 20 -6 0 -7 -6 -9 -12 -5 -10 5 -10 4 -1 -6 7 -8 20 -15 28 -16 13 -2 14 1 4 12 -9 12 -6 14 20 14 55 0 33 15 -24 17 -30 0 -55 -2 -55 -7z"/>
<path d="M1351 258 c-29 -78 -43 -100 -71 -116 -32 -18 -39 -32 -16 -32 23 0 76 50 76 71 0 10 7 37 16 59 9 23 14 43 12 46 -3 2 -11 -10 -17 -28z"/>
<path d="M325 250 c-3 -5 -15 -10 -25 -10 -23 0 -35 -16 -19 -26 8 -5 9 -3 4 6 -6 9 -1 12 21 8 24 -3 30 0 30 14 0 21 -2 22 -11 8z"/>
<path d="M826 185 c-44 -30 -91 -57 -105 -61 -25 -6 -24 -7 19 -27 30 -13 71 -21 125 -22 77 -3 79 1 10 21 -36 11 -43 38 -18 67 19 22 56 77 51 77 -2 -1 -39 -25 -82 -55z"/>
<path d="M153 153 c9 -2 25 -2 35 0 9 3 1 5 -18 5 -19 0 -27 -2 -17 -5z"/>
<path d="M133 133 c9 -2 25 -2 35 0 9 3 1 5 -18 5 -19 0 -27 -2 -17 -5z"/>
<path d="M106 112 c-3 -6 1 -15 8 -21 8 -7 17 -8 20 -3 3 6 -1 15 -8 21 -8 7 -17 8 -20 3z"/>
<path d="M171 45 l-23 -13 32 -7 c34 -7 61 7 39 20 -8 5 -10 4 -5 -3 4 -7 1 -12 -9 -12 -11 0 -15 5 -11 15 3 8 4 15 3 14 -1 -1 -13 -7 -26 -14z"/>
<path d="M1136 43 c-4 -5 -38 -11 -74 -14 l-67 -6 61 -1 c39 -1 67 3 80 13 10 8 16 15 13 15 -3 0 -9 -3 -13 -7z"/>
<path d="M115 20 c3 -5 16 -10 28 -9 21 0 21 1 2 9 -28 12 -37 12 -30 0z"/>
</g>
<g id="layer107" fill="#c5ab43" stroke="none">
<path d="M1350 2472 c0 -14 40 -63 82 -101 21 -19 37 -35 35 -37 -2 -2 -36 12 -76 32 -85 42 -114 41 -49 -2 89 -57 87 -55 43 -50 -22 2 -53 8 -70 12 -30 7 -30 7 -11 -14 29 -33 109 -55 173 -49 53 6 57 4 111 -38 32 -25 68 -53 81 -63 21 -16 23 -22 14 -49 -13 -37 -2 -63 20 -45 17 14 27 6 28 -22 0 -15 6 -10 19 19 10 22 19 47 19 56 1 16 -40 58 -101 103 -21 15 -38 31 -38 36 0 5 26 12 58 16 l57 8 -69 8 c-93 11 -155 42 -248 122 -43 37 -78 63 -78 58z"/>
<path d="M998 2428 c61 -64 49 -66 -103 -18 l-30 9 27 -23 c15 -13 45 -27 67 -31 77 -13 53 -25 -51 -26 -98 -1 -101 -1 -71 -15 34 -14 98 -19 193 -14 51 3 62 -1 123 -39 37 -24 67 -46 67 -50 0 -3 -7 -16 -15 -28 -12 -17 -12 -23 -1 -32 10 -8 16 -7 26 4 15 18 40 3 40 -23 0 -12 6 -10 25 8 14 13 25 29 25 36 0 7 -29 35 -65 63 -36 28 -65 56 -65 61 0 6 12 10 28 10 21 1 16 5 -25 20 -29 10 -80 36 -114 57 -130 82 -129 81 -81 31z"/>
<path d="M308 975 c-3 -3 3 -21 12 -40 14 -27 16 -44 9 -72 -5 -25 -4 -40 3 -44 6 -4 70 -12 142 -19 139 -13 237 -44 256 -81 16 -29 11 -34 -12 -13 -33 28 -88 51 -139 58 -24 3 -84 10 -134 16 -49 6 -100 13 -112 16 -17 3 -23 0 -23 -14 0 -28 -50 -121 -71 -133 -32 -17 -21 -29 26 -29 83 0 239 -21 273 -37 31 -15 70 -68 58 -80 -3 -3 -15 7 -28 22 -20 23 -31 26 -83 26 -52 0 -58 2 -42 13 16 12 14 14 -14 20 -30 6 -56 -2 -34 -11 6 -2 9 -19 7 -38 -2 -19 6 -67 18 -107 39 -128 111 -174 235 -149 139 28 250 114 282 217 39 127 9 242 -84 323 -38 34 -48 39 -65 30 -11 -6 -46 -11 -78 -11 -62 0 -111 20 -191 78 -26 19 -66 41 -89 49 -42 15 -111 20 -122 10z m96 -210 c29 -29 -7 -65 -45 -45 -24 13 -25 36 -1 49 23 14 28 13 46 -4z m377 -185 c28 -22 19 -25 -27 -8 -29 10 -36 9 -54 -7 -11 -10 -23 -15 -28 -11 -11 11 37 46 63 46 13 0 33 -9 46 -20z m-327 -113 c3 -19 13 -42 20 -53 19 -26 34 -10 45 47 6 33 10 39 16 26 11 -27 -4 -86 -25 -97 -39 -21 -80 29 -80 97 0 34 16 20 24 -20z m340 9 c4 -18 2 -46 -4 -60 -8 -22 -15 -27 -37 -24 -28 3 -45 26 -58 81 -11 44 12 32 27 -15 8 -24 22 -44 31 -46 14 -3 17 5 17 47 0 58 15 68 24 17z"/>
</g>
<g id="layer108" fill="#6e9bb8" stroke="none">
<path d="M1170 2142 c0 -12 -6 -22 -12 -23 -7 0 -34 -2 -60 -4 -28 -1 -65 -13 -91 -28 -51 -30 -71 -61 -34 -52 27 6 79 -7 84 -22 3 -8 -9 -10 -34 -6 -49 6 -222 -38 -266 -69 -41 -27 -127 -110 -127 -121 0 -5 8 -6 19 -2 21 6 51 -3 51 -16 0 -5 -14 -9 -30 -9 -40 0 -81 -22 -114 -60 -30 -36 -34 -55 -9 -46 42 17 102 18 123 3 20 -14 18 -14 -25 -10 -114 13 -215 -81 -215 -201 0 -132 59 -272 175 -416 83 -102 109 -150 100 -181 -8 -23 5 -24 68 -5 l46 14 53 -48 c77 -69 113 -144 113 -238 0 -80 7 -79 46 3 27 58 24 85 -22 172 -65 126 -120 261 -126 312 -6 57 9 110 44 151 27 33 72 40 93 15 10 -12 6 -13 -24 -8 -31 5 -37 2 -55 -28 l-21 -34 22 -5 c21 -5 21 -6 -5 -23 -30 -19 -34 -47 -16 -110 9 -32 18 -41 57 -59 262 -113 478 -59 768 195 43 37 89 83 103 102 13 19 28 35 32 35 5 0 6 -27 2 -60 -7 -73 15 -140 53 -160 21 -12 27 -11 41 2 15 15 15 19 -1 51 -20 44 -21 83 0 91 22 8 24 8 24 -8 0 -43 110 -104 164 -90 32 8 80 59 73 77 -3 8 -35 25 -71 37 -70 23 -130 76 -142 125 -7 27 5 50 13 27 11 -30 55 -70 84 -76 71 -14 140 28 184 110 31 58 39 102 26 137 -15 39 -40 34 -90 -18 -44 -46 -98 -69 -148 -63 -42 5 -37 23 10 35 55 15 92 45 117 94 25 47 25 82 1 134 -31 69 -79 90 -124 55 -22 -18 -27 -29 -27 -68 0 -50 -24 -109 -52 -126 -23 -14 -35 0 -20 24 21 34 15 88 -13 115 -13 14 -28 25 -33 25 -21 0 -33 -31 -31 -82 5 -150 3 -204 -9 -223 -12 -18 -13 -16 -8 19 14 103 -43 296 -104 351 -20 18 -20 18 -20 -52 0 -75 -12 -122 -42 -165 -30 -43 -41 -33 -16 15 30 57 38 204 14 261 -11 27 -13 43 -6 51 8 9 5 14 -10 18 -13 3 -20 13 -20 30 0 20 -4 24 -20 20 -14 -4 -20 0 -20 11 0 9 -4 16 -10 16 -5 0 -10 -4 -10 -10 0 -5 -25 -10 -55 -10 -105 0 -234 -42 -314 -104 -19 -14 -37 -24 -39 -21 -8 8 30 45 80 80 l48 32 -25 23 c-14 13 -27 31 -31 42 -3 11 -15 18 -30 18 -15 0 -24 6 -24 15 0 12 -4 14 -17 6 -14 -7 -24 -4 -40 11 l-23 21 0 -21z m176 -297 c16 -17 36 -25 58 -25 44 0 71 -29 63 -70 -5 -24 -3 -30 10 -30 43 0 64 -50 44 -103 -9 -22 -7 -25 18 -30 37 -8 66 -65 57 -112 -6 -31 -78 -125 -97 -125 -18 0 -166 -93 -201 -128 -48 -46 -57 -37 -18 16 20 28 53 54 101 79 139 74 189 124 189 189 0 61 -57 74 -106 23 -30 -32 -111 -89 -126 -89 -5 0 27 35 70 78 84 83 115 139 92 167 -7 8 -22 15 -34 15 -40 0 -50 14 -31 43 24 38 11 51 -46 44 -46 -6 -48 -5 -51 21 -2 21 -9 28 -30 30 -64 7 -174 -90 -238 -210 -37 -70 -55 -179 -39 -240 11 -42 55 -83 98 -93 40 -9 176 50 251 108 83 65 91 66 30 3 -64 -67 -193 -136 -254 -136 -59 0 -110 32 -136 86 -20 40 -22 57 -17 126 4 66 12 94 41 152 62 125 182 236 254 236 13 0 34 -11 48 -25z"/>
</g>
<g id="layer109" fill="#ad9ca0" stroke="none">
<path d="M870 2541 c0 -13 26 -32 33 -24 8 7 -11 33 -24 33 -5 0 -9 -4 -9 -9z"/>
<path d="M935 2460 c21 -22 41 -40 44 -40 3 0 -13 18 -34 40 -21 22 -41 40 -44 40 -3 0 13 -18 34 -40z"/>
<path d="M1350 2469 c0 -6 28 -40 62 -75 38 -40 55 -64 45 -64 -9 0 -19 5 -22 11 -9 13 -116 61 -123 54 -7 -7 22 -29 73 -58 l40 -22 -32 -3 c-18 -2 -41 2 -52 7 -11 6 -27 11 -37 11 -13 0 -12 -4 7 -19 47 -37 97 -51 164 -46 49 3 66 1 76 -11 7 -9 40 -34 72 -56 66 -45 72 -54 58 -90 -12 -33 1 -57 23 -39 13 11 17 10 25 -10 l9 -24 12 30 c24 59 21 73 -27 115 -26 22 -48 38 -51 35 -3 -2 -16 8 -29 23 l-23 27 22 7 c13 3 37 7 53 8 19 1 4 7 -40 15 -91 16 -132 38 -227 119 -43 37 -78 62 -78 55z"/>
<path d="M840 2415 c30 -30 57 -55 59 -55 3 0 -19 25 -49 55 -30 30 -57 55 -59 55 -3 0 19 -25 49 -55z"/>
<path d="M998 2428 c23 -24 42 -47 42 -50 0 -8 -27 -4 -74 11 -63 19 -88 22 -81 11 8 -13 43 -27 82 -34 14 -3 31 -10 37 -16 11 -11 11 -11 -114 -11 -82 0 -84 0 -53 -14 34 -15 98 -20 193 -15 51 3 62 -1 123 -39 37 -24 67 -46 67 -50 0 -3 -7 -16 -15 -28 -12 -17 -12 -23 -1 -32 10 -8 16 -8 26 4 18 21 29 19 36 -10 l6 -24 26 31 26 31 -39 31 c-21 17 -57 47 -79 68 l-40 36 29 -5 c19 -3 3 9 -44 32 -41 19 -90 48 -110 64 -20 15 -47 34 -61 41 -19 9 -15 2 18 -32z"/>
<path d="M1226 2458 c4 -5 9 -7 12 -4 3 4 17 -4 31 -16 l26 -23 -23 26 c-20 24 -58 37 -46 17z"/>
<path d="M1210 2381 c0 -6 5 -13 10 -16 6 -4 8 -11 5 -16 -4 -5 -1 -9 4 -9 14 0 14 17 1 25 -6 4 -8 11 -5 16 4 5 1 9 -4 9 -6 0 -11 -4 -11 -9z"/>
<path d="M1818 2323 c10 -4 9 -9 -5 -20 -17 -13 -16 -13 5 -3 26 13 29 30 5 29 -12 0 -13 -2 -5 -6z"/>
<path d="M1260 2303 c14 -3 34 -12 45 -21 20 -17 20 -17 1 6 -12 13 -29 21 -45 21 l-26 -2 25 -4z"/>
<path d="M1028 2293 c12 -2 30 -2 40 0 9 3 -1 5 -23 4 -22 0 -30 -2 -17 -4z"/>
<path d="M1470 2246 c0 -2 15 -6 34 -8 19 -2 32 0 30 4 -5 8 -64 12 -64 4z"/>
<path d="M1103 2143 c9 -2 25 -2 35 0 9 3 1 5 -18 5 -19 0 -27 -2 -17 -5z"/>
<path d="M1083 2081 c-43 -31 -51 -45 -33 -56 24 -15 6 -24 -42 -24 -111 1 -200 -36 -277 -114 -36 -37 -42 -50 -37 -71 6 -23 3 -25 -39 -32 -33 -5 -55 -16 -85 -45 -47 -45 -52 -63 -14 -49 40 16 110 12 125 -6 11 -14 9 -15 -22 -9 -46 9 -140 -18 -166 -48 -54 -59 -70 -151 -46 -266 21 -99 68 -185 169 -306 67 -81 94 -126 94 -156 0 -32 11 -37 31 -13 12 15 17 90 8 124 -3 9 5 16 19 18 31 5 112 91 112 120 0 32 36 99 60 112 26 14 82 9 87 -7 3 -7 -8 -11 -29 -10 -31 2 -33 0 -36 -35 -5 -61 56 -138 153 -195 64 -38 126 -53 216 -53 62 0 82 5 144 35 120 57 332 229 389 315 23 34 40 15 25 -29 -12 -35 -6 -109 11 -141 6 -11 22 -27 36 -37 23 -15 27 -15 41 0 15 14 14 19 -1 50 -20 44 -21 83 0 91 22 8 24 8 24 -7 0 -7 16 -28 35 -47 28 -27 44 -34 88 -38 49 -4 57 -1 87 25 43 39 36 56 -33 78 -31 9 -69 26 -86 36 -43 26 -92 129 -61 129 5 0 16 -13 25 -30 8 -16 24 -34 34 -40 32 -16 103 -12 137 9 90 55 140 208 81 245 -14 9 -24 4 -55 -30 -49 -54 -93 -76 -145 -72 -54 4 -58 30 -7 38 103 18 148 104 105 205 -33 80 -104 62 -135 -33 -19 -57 -45 -92 -68 -92 -10 0 -12 6 -7 23 17 57 17 63 -9 77 -34 18 -82 -1 -70 -28 14 -32 16 -166 3 -197 -12 -28 -13 -23 -20 72 -10 139 -34 184 -91 170 -18 -5 -30 -19 -42 -51 -17 -44 -51 -84 -62 -73 -3 3 -2 12 3 21 4 8 5 63 2 123 -6 123 -24 169 -85 223 l-38 33 -98 -7 c-109 -7 -150 -20 -209 -67 -22 -17 -43 -28 -47 -24 -7 7 50 64 84 83 18 10 18 11 0 31 -31 34 -102 71 -148 77 -37 5 -49 2 -85 -25z m242 -201 c3 -5 23 -10 43 -10 45 -1 67 -16 94 -66 11 -20 29 -45 40 -54 13 -10 22 -32 25 -60 3 -26 18 -66 36 -95 25 -39 32 -61 32 -102 0 -47 -4 -56 -40 -93 -22 -23 -56 -50 -77 -61 -20 -10 -62 -41 -93 -68 -56 -49 -122 -88 -132 -77 -18 18 98 122 163 146 49 19 86 53 106 97 18 41 18 46 3 69 -19 29 -24 28 -98 -19 -60 -39 -97 -53 -97 -38 0 5 15 19 34 30 68 42 136 135 136 185 0 21 -6 26 -35 32 -44 8 -50 17 -30 48 9 14 14 30 10 37 -7 11 -56 8 -87 -6 -15 -6 -18 -2 -18 18 0 33 -24 46 -66 37 -67 -15 -146 -96 -205 -210 -32 -61 -34 -71 -34 -164 l0 -98 35 -29 c49 -41 100 -39 193 7 39 20 98 57 130 82 31 25 60 43 63 40 8 -9 -61 -101 -88 -118 -62 -39 -126 -61 -192 -66 -78 -6 -118 10 -151 59 -22 34 -38 119 -38 202 0 59 5 80 31 130 17 33 40 69 49 80 25 28 134 119 158 133 25 14 92 15 100 2z"/>
<path d="M1965 1808 c11 -6 29 -18 40 -27 12 -9 8 -4 -7 12 -16 15 -34 27 -41 27 -6 0 -3 -6 8 -12z"/>
<path d="M2038 1768 c-5 -43 -4 -68 3 -68 4 0 7 18 7 40 0 38 -6 54 -10 28z"/>
<path d="M2243 1623 c-9 -22 2 -25 20 -5 15 17 16 19 1 19 -9 0 -18 -7 -21 -14z"/>
<path d="M1834 1238 c-4 -6 -3 -8 4 -4 7 4 12 -6 15 -26 4 -33 4 -33 5 5 2 36 -10 49 -24 25z"/>
<path d="M1784 1188 l-29 -33 33 29 c30 28 37 36 29 36 -2 0 -16 -15 -33 -32z"/>
<path d="M1704 1118 l-29 -33 33 29 c30 28 37 36 29 36 -2 0 -16 -15 -33 -32z"/>
<path d="M1902 1095 c15 -16 29 -27 31 -24 3 2 -10 15 -27 28 l-31 24 27 -28z"/>
<path d="M620 1005 c14 -16 26 -32 28 -34 1 -2 4 -2 7 1 3 2 -10 18 -28 34 l-32 29 25 -30z"/>
<path d="M308 975 c-3 -3 3 -21 12 -40 14 -27 16 -44 9 -72 -4 -21 -6 -40 -3 -42 3 -3 72 -13 154 -22 155 -18 230 -41 250 -79 15 -28 12 -35 -7 -18 -39 34 -111 59 -198 69 -49 5 -117 14 -150 18 -33 5 -60 8 -60 7 -3 -27 -44 -118 -62 -138 l-26 -27 24 -5 c13 -3 71 -8 129 -11 125 -7 181 -28 205 -75 22 -42 10 -52 -18 -16 -20 24 -29 27 -82 27 -54 0 -58 2 -41 15 20 14 20 14 0 15 -10 0 -27 2 -36 4 -10 2 -18 -1 -18 -6 0 -5 4 -9 8 -9 5 0 7 -14 4 -30 -5 -33 21 -136 45 -183 8 -16 35 -41 61 -58 41 -26 53 -29 100 -24 113 10 198 49 269 123 80 81 101 220 50 325 -29 58 -111 142 -129 131 -23 -15 -86 -23 -127 -17 -32 4 -69 23 -126 61 -44 30 -100 61 -124 69 -45 13 -103 17 -113 8z m96 -210 c29 -29 -7 -65 -45 -45 -24 13 -25 36 -1 49 23 14 28 13 46 -4z m377 -186 l24 -20 -30 7 c-44 10 -68 7 -81 -11 -9 -12 -14 -13 -20 -4 -10 16 31 49 61 49 13 0 33 -9 46 -21z m19 -111 c0 -80 -53 -107 -90 -45 -22 36 -27 81 -8 75 7 -3 15 -17 19 -32 9 -34 28 -58 40 -50 5 3 9 24 9 48 0 23 3 46 7 49 10 11 23 -14 23 -45z m-350 22 c0 -53 58 -110 61 -60 1 11 3 25 4 30 1 6 3 17 4 26 2 29 21 3 21 -30 0 -45 -29 -81 -58 -72 -32 10 -58 66 -53 114 2 21 21 13 21 -8z"/>
<path d="M357 754 c-10 -11 3 -24 24 -24 10 0 19 7 19 15 0 15 -31 21 -43 9z"/>
<path d="M204 938 l-29 -33 33 29 c30 28 37 36 29 36 -2 0 -16 -15 -33 -32z"/>
<path d="M682 900 c0 -19 2 -27 5 -17 2 9 2 25 0 35 -3 9 -5 1 -5 -18z"/>
<path d="M1198 903 c17 -2 47 -2 65 0 17 2 3 4 -33 4 -36 0 -50 -2 -32 -4z"/>
<path d="M1389 783 l-24 -28 30 25 c17 14 32 26 34 28 2 1 0 2 -6 2 -5 0 -20 -12 -34 -27z"/>
<path d="M1499 784 c17 -14 37 -23 43 -21 9 4 7 6 -3 6 -9 1 -24 10 -34 21 -10 11 -22 20 -27 20 -5 0 4 -12 21 -26z"/>
<path d="M1407 772 c-26 -28 -22 -80 6 -93 13 -6 27 -20 32 -32 14 -31 41 -32 68 -3 14 14 32 26 41 26 9 0 16 8 16 19 0 37 -12 51 -41 51 -19 0 -29 5 -29 15 0 34 -67 46 -93 17z"/>
<path d="M80 722 c0 -6 12 -24 26 -41 34 -41 80 -42 115 -3 13 15 17 21 9 15 -25 -22 -85 -16 -119 13 -17 14 -31 21 -31 16z"/>
<path d="M1558 654 c-38 -20 -36 -28 2 -9 17 9 30 18 30 20 0 7 -1 6 -32 -11z"/>
<path d="M1062 608 c-26 -60 -63 -111 -137 -194 -87 -97 -193 -152 -313 -162 l-83 -7 46 -45 c43 -42 49 -45 96 -43 79 2 161 49 272 153 76 72 217 244 217 265 0 9 -62 75 -71 75 -4 0 -17 -19 -27 -42z"/>
<path d="M258 593 c12 -2 32 -2 45 0 12 2 2 4 -23 4 -25 0 -35 -2 -22 -4z"/>
<path d="M160 417 c10 -9 70 -16 70 -9 0 4 -17 9 -37 10 -21 2 -35 1 -33 -1z"/>
<path d="M176 379 c3 -5 10 -6 16 -3 7 4 8 2 4 -4 -4 -7 -14 -12 -22 -12 -32 0 -11 -16 24 -18 27 -2 33 0 22 8 -8 5 -15 15 -15 21 0 7 -8 13 -18 15 -9 1 -15 -2 -11 -7z"/>
<path d="M285 285 c1 -11 6 -18 11 -16 5 1 8 7 7 12 -2 5 11 9 27 9 17 0 30 3 30 8 0 4 -17 7 -38 7 -32 0 -38 -3 -37 -20z"/>
<path d="M480 265 c19 -19 36 -35 39 -35 3 0 -10 16 -29 35 -19 19 -36 35 -39 35 -3 0 10 -16 29 -35z"/>
<path d="M325 250 c-3 -5 -15 -10 -25 -10 -23 0 -35 -16 -19 -26 8 -4 9 -3 5 4 -5 8 1 12 17 12 14 0 27 7 31 15 6 17 0 20 -9 5z"/>
<path d="M172 45 c-23 -12 -23 -12 9 -19 35 -7 60 6 38 19 -8 5 -10 4 -5 -3 4 -7 1 -12 -9 -12 -11 0 -15 5 -11 15 3 8 4 15 3 14 -1 -1 -12 -7 -25 -14z"/>
<path d="M888 43 c12 -2 30 -2 40 0 9 3 -1 5 -23 4 -22 0 -30 -2 -17 -4z"/>
<path d="M45 10 l-50 -7 58 -1 c37 -1 56 2 52 8 -3 6 -7 9 -8 8 -1 0 -24 -4 -52 -8z"/>
</g>
<g id="layer110" fill="#e8c434" stroke="none">
<path d="M1350 2469 c0 -6 28 -40 62 -75 38 -40 55 -64 45 -64 -9 0 -19 5 -22 11 -9 13 -116 61 -123 54 -7 -7 22 -29 73 -58 l40 -22 -32 -3 c-18 -2 -41 2 -52 7 -11 6 -27 11 -37 11 -13 0 -12 -4 7 -19 46 -36 95 -50 163 -46 50 3 67 1 77 -11 7 -9 40 -34 72 -56 66 -45 72 -54 58 -90 -12 -33 1 -57 23 -39 13 11 17 10 25 -10 l9 -24 12 30 c24 59 21 73 -27 115 -26 22 -48 38 -51 35 -3 -2 -16 8 -30 22 l-25 28 24 6 c13 4 38 8 54 9 19 1 4 7 -40 15 -91 16 -132 38 -227 119 -43 37 -78 62 -78 55z"/>
<path d="M998 2428 c23 -24 42 -47 42 -50 0 -8 -27 -4 -74 11 -63 19 -88 22 -81 11 8 -13 43 -27 82 -34 31 -6 55 -25 33 -27 -8 -1 -55 -1 -105 0 -87 0 -89 0 -58 -14 34 -15 97 -20 193 -15 51 3 62 -1 123 -39 37 -24 67 -46 67 -50 0 -3 -7 -16 -15 -28 -12 -17 -12 -23 -1 -32 10 -8 16 -8 26 4 18 21 29 19 36 -10 l6 -24 26 31 26 31 -39 31 c-21 17 -57 47 -79 68 l-40 36 29 -5 c19 -3 3 9 -44 32 -41 19 -90 48 -110 64 -20 15 -47 34 -61 41 -19 9 -15 2 18 -32z"/>
<path d="M308 975 c-3 -3 3 -21 12 -40 14 -27 16 -44 9 -72 -4 -21 -6 -40 -3 -42 3 -3 72 -13 154 -22 155 -18 230 -41 250 -79 15 -28 12 -35 -7 -18 -39 34 -111 59 -198 69 -49 5 -117 14 -150 18 -33 5 -60 8 -60 7 -3 -27 -44 -118 -62 -138 l-26 -27 24 -5 c13 -3 71 -8 129 -11 125 -7 181 -28 205 -75 22 -42 10 -52 -18 -16 -20 24 -29 27 -82 27 -54 0 -58 2 -41 15 20 14 20 14 0 15 -10 0 -27 2 -37 4 -11 2 -15 -1 -10 -8 4 -7 6 -26 4 -43 -3 -34 23 -131 46 -177 8 -16 35 -41 61 -58 41 -26 53 -29 100 -24 113 10 198 49 269 123 80 81 101 220 50 325 -29 58 -111 142 -129 131 -23 -15 -86 -23 -127 -17 -32 4 -69 23 -126 61 -44 30 -100 61 -124 69 -45 13 -103 17 -113 8z m96 -210 c29 -29 -7 -65 -45 -45 -24 13 -25 36 -1 49 23 14 28 13 46 -4z m377 -186 l24 -20 -30 7 c-44 10 -68 7 -81 -11 -9 -12 -14 -13 -20 -4 -10 16 31 49 61 49 13 0 33 -9 46 -21z m19 -111 c0 -80 -53 -107 -90 -45 -22 36 -27 81 -8 75 7 -3 15 -17 19 -32 9 -34 28 -58 40 -50 5 3 9 24 9 48 0 23 3 46 7 49 10 11 23 -14 23 -45z m-350 22 c0 -53 58 -110 61 -60 1 11 3 25 4 30 1 6 3 17 4 26 2 29 21 3 21 -30 0 -45 -29 -81 -58 -72 -32 10 -58 66 -53 114 2 21 21 13 21 -8z"/>
</g>
<g id="layer111" fill="#8bc1e4" stroke="none">
<path d="M900 2497 c0 -2 15 -16 33 -33 l32 -29 -29 33 c-28 30 -36 37 -36 29z"/>
<path d="M1083 2081 c-43 -31 -51 -45 -33 -56 24 -15 6 -24 -42 -24 -111 1 -200 -36 -277 -114 -36 -37 -42 -50 -37 -71 6 -23 3 -25 -39 -32 -33 -5 -55 -16 -85 -45 -47 -45 -52 -63 -14 -49 40 16 110 12 125 -6 11 -14 9 -15 -22 -9 -46 9 -140 -18 -166 -48 -40 -44 -55 -87 -55 -161 1 -149 44 -251 178 -411 67 -81 94 -126 94 -156 0 -32 11 -37 31 -13 12 15 17 90 8 124 -3 9 5 16 19 18 31 5 112 91 112 120 0 32 36 99 60 112 26 14 82 9 87 -7 3 -7 -8 -11 -29 -10 -31 2 -33 0 -36 -35 -5 -61 56 -138 153 -195 64 -38 126 -53 216 -53 62 0 82 5 144 35 120 57 332 229 389 315 23 34 40 15 25 -29 -12 -35 -6 -109 11 -141 6 -11 22 -27 36 -37 22 -14 27 -14 40 -2 12 13 12 20 -6 56 -25 52 -25 70 -1 83 26 13 31 13 31 -3 0 -7 16 -28 35 -47 28 -27 44 -34 88 -38 49 -4 57 -1 87 25 43 39 36 56 -33 78 -31 9 -69 26 -86 36 -43 26 -92 129 -61 129 5 0 16 -13 25 -30 8 -16 24 -34 34 -40 32 -16 103 -12 137 9 90 55 140 208 81 245 -14 9 -24 4 -55 -30 -49 -54 -93 -76 -145 -72 -54 4 -58 30 -7 38 103 18 148 104 105 205 -33 80 -104 62 -135 -33 -19 -57 -45 -92 -68 -92 -10 0 -12 6 -7 23 17 57 17 63 -8 76 -14 7 -34 10 -45 7 -20 -7 -21 -12 -15 -104 3 -68 1 -106 -8 -127 -12 -28 -13 -23 -20 72 -10 139 -34 184 -91 170 -18 -5 -30 -19 -42 -51 -17 -44 -51 -84 -62 -73 -3 3 -2 12 3 21 4 8 5 63 2 123 -6 123 -24 169 -85 223 l-38 33 -98 -7 c-109 -7 -150 -20 -209 -67 -22 -17 -43 -28 -47 -24 -7 7 50 64 84 83 18 10 18 11 0 31 -31 34 -102 71 -148 77 -37 5 -49 2 -85 -25z m242 -201 c3 -5 23 -10 43 -10 45 -1 67 -16 94 -66 11 -20 29 -45 40 -54 13 -10 22 -32 25 -60 3 -26 18 -66 36 -95 25 -39 32 -61 32 -102 0 -47 -4 -56 -40 -93 -22 -23 -56 -50 -77 -61 -20 -10 -62 -41 -93 -68 -56 -49 -122 -88 -132 -77 -18 18 98 122 163 146 49 19 86 53 106 97 18 41 18 46 3 69 -19 29 -24 28 -98 -19 -60 -39 -97 -53 -97 -38 0 5 15 19 34 30 68 42 136 135 136 185 0 21 -6 26 -35 32 -44 8 -50 17 -30 48 9 14 14 30 10 37 -7 11 -56 8 -87 -6 -15 -6 -18 -2 -18 18 0 33 -24 46 -66 37 -67 -15 -146 -96 -205 -210 -32 -61 -34 -71 -34 -164 l0 -98 35 -29 c49 -41 100 -39 193 7 39 20 98 57 130 82 31 25 60 43 63 40 8 -9 -61 -101 -88 -118 -62 -39 -126 -61 -192 -66 -78 -6 -118 10 -151 59 -22 34 -38 119 -38 202 0 59 5 80 31 130 17 33 40 69 49 80 25 28 134 119 158 133 25 14 92 15 100 2z"/>
<path d="M1440 782 c-55 -18 -65 -70 -20 -103 16 -12 27 -26 24 -30 -2 -4 3 -12 13 -17 20 -11 63 2 63 18 0 6 11 15 25 20 14 5 25 14 25 20 0 25 -22 50 -44 50 -13 0 -26 6 -29 14 -8 19 -38 35 -57 28z"/>
<path d="M360 745 c0 -10 7 -15 18 -13 21 4 19 22 -2 26 -10 2 -16 -3 -16 -13z"/>
<path d="M1066 608 c-40 -105 -187 -260 -300 -317 -55 -28 -82 -35 -147 -39 -43 -3 -79 -8 -79 -11 0 -4 17 -24 38 -44 53 -52 110 -52 213 0 88 44 235 185 313 302 47 69 49 75 35 99 -8 13 -23 31 -35 39 -20 13 -22 11 -38 -29z"/>
<path d="M253 593 c9 -2 25 -2 35 0 9 3 1 5 -18 5 -19 0 -27 -2 -17 -5z"/>
<path d="M373 525 c0 -22 2 -30 4 -17 2 12 2 30 0 40 -3 9 -5 -1 -4 -23z"/>
<path d="M185 380 c-3 -5 -3 -10 2 -11 4 0 -1 -4 -12 -9 -19 -8 -19 -9 2 -9 16 -1 21 4 20 19 -1 23 -3 24 -12 10z"/>
<path d="M1402 310 c0 -19 2 -27 5 -17 2 9 2 25 0 35 -3 9 -5 1 -5 -18z"/>
<path d="M291 286 c-8 -10 -9 -16 -1 -21 6 -4 9 -1 8 6 -2 8 11 16 32 20 l35 6 -31 2 c-17 0 -37 -5 -43 -13z"/>
<path d="M883 43 c9 -2 25 -2 35 0 9 3 1 5 -18 5 -19 0 -27 -2 -17 -5z"/>
</g>
<g id="layer112" fill="#f0f0f0" stroke="none">
<path d="M923 2283 c9 -2 25 -2 35 0 9 3 1 5 -18 5 -19 0 -27 -2 -17 -5z"/>
<path d="M32 780 c0 -19 2 -27 5 -17 2 9 2 25 0 35 -3 9 -5 1 -5 -18z"/>
<path d="M1407 762 c-24 -26 -21 -49 10 -80 15 -15 28 -31 28 -37 0 -5 15 -11 33 -13 27 -3 35 1 39 17 3 12 14 21 24 21 23 0 37 29 20 40 -7 4 -13 11 -14 16 -1 5 -10 9 -20 8 -10 0 -26 10 -34 23 -19 28 -63 31 -86 5z m68 -37 c35 -12 37 -14 13 -15 -15 0 -30 5 -33 10 -10 17 -25 11 -35 -12 -5 -14 -9 -17 -9 -7 -1 11 17 41 24 39 0 0 18 -7 40 -15z"/>
<path d="M362 748 c5 -15 28 -18 29 -3 0 6 -7 12 -17 13 -10 3 -15 -1 -12 -10z"/>
<path d="M1067 609 c-9 -23 -14 -46 -10 -52 4 -6 1 -7 -7 -2 -10 6 -12 4 -7 -9 4 -9 3 -15 -2 -12 -5 3 -29 -20 -54 -52 -76 -97 -131 -145 -210 -186 -64 -32 -89 -40 -158 -45 l-83 -6 40 -43 c38 -38 45 -42 91 -42 85 0 179 55 294 172 111 113 195 229 185 255 -6 15 -9 15 -17 3 -9 -12 -10 -11 -5 4 4 12 -1 25 -15 37 -12 11 -23 19 -24 19 -1 0 -9 -19 -18 -41z m64 -57 c-5 -10 -16 -23 -23 -29 -16 -13 -89 -22 -82 -11 3 4 21 8 40 8 27 0 37 5 46 25 6 14 15 25 20 25 5 0 4 -8 -1 -18z"/>
<path d="M28 3 c18 -2 45 -2 60 0 15 2 0 4 -33 4 -33 0 -45 -2 -27 -4z"/>
<path d="M723 3 c307 -2 807 -2 1110 0 304 1 53 2 -558 2 -611 0 -859 -1 -552 -2z"/>
</g>


</svg>